<?xml version="1.0" encoding="UTF-8"?>
<!--Generator: Apple Native CoreSVG 149-->
<!DOCTYPE svg
PUBLIC "-//W3C//DTD SVG 1.1//EN"
       "http://www.w3.org/Graphics/SVG/1.1/DTD/svg11.dtd">
<svg version="1.1" xmlns="http://www.w3.org/2000/svg" xmlns:xlink="http://www.w3.org/1999/xlink" width="3300" height="2200">
 <!--glyph: "uni1000EC.medium", point size: 100.000000, font version: "Version 16.0d18e1", template writer version: "8"-->
 <g id="Notes">
  <rect height="2200" id="artboard" style="fill:white;opacity:1" width="3300" x="0" y="0"/>
  <line id="" style="fill:none;stroke:black;opacity:1;stroke-width:0.5;" x1="263" x2="3036" y1="292" y2="292"/>
  <text style="stroke:none;fill:black;font-family:-apple-system,&quot;SF Pro Display&quot;,&quot;SF Pro Text&quot;,Helvetica,sans-serif;font-weight:bold;" transform="matrix(1 0 0 1 263 322)">Weight/Scale Variations</text>
  <text style="stroke:none;fill:black;font-family:-apple-system,&quot;SF Pro Display&quot;,&quot;SF Pro Text&quot;,Helvetica,sans-serif;text-anchor:middle;" transform="matrix(1 0 0 1 559.711 322)">Ultralight</text>
  <text style="stroke:none;fill:black;font-family:-apple-system,&quot;SF Pro Display&quot;,&quot;SF Pro Text&quot;,Helvetica,sans-serif;text-anchor:middle;" transform="matrix(1 0 0 1 856.422 322)">Thin</text>
  <text style="stroke:none;fill:black;font-family:-apple-system,&quot;SF Pro Display&quot;,&quot;SF Pro Text&quot;,Helvetica,sans-serif;text-anchor:middle;" transform="matrix(1 0 0 1 1153.13 322)">Light</text>
  <text style="stroke:none;fill:black;font-family:-apple-system,&quot;SF Pro Display&quot;,&quot;SF Pro Text&quot;,Helvetica,sans-serif;text-anchor:middle;" transform="matrix(1 0 0 1 1449.84 322)">Regular</text>
  <text style="stroke:none;fill:black;font-family:-apple-system,&quot;SF Pro Display&quot;,&quot;SF Pro Text&quot;,Helvetica,sans-serif;text-anchor:middle;" transform="matrix(1 0 0 1 1746.56 322)">Medium</text>
  <text style="stroke:none;fill:black;font-family:-apple-system,&quot;SF Pro Display&quot;,&quot;SF Pro Text&quot;,Helvetica,sans-serif;text-anchor:middle;" transform="matrix(1 0 0 1 2043.27 322)">Semibold</text>
  <text style="stroke:none;fill:black;font-family:-apple-system,&quot;SF Pro Display&quot;,&quot;SF Pro Text&quot;,Helvetica,sans-serif;text-anchor:middle;" transform="matrix(1 0 0 1 2339.98 322)">Bold</text>
  <text style="stroke:none;fill:black;font-family:-apple-system,&quot;SF Pro Display&quot;,&quot;SF Pro Text&quot;,Helvetica,sans-serif;text-anchor:middle;" transform="matrix(1 0 0 1 2636.69 322)">Heavy</text>
  <text style="stroke:none;fill:black;font-family:-apple-system,&quot;SF Pro Display&quot;,&quot;SF Pro Text&quot;,Helvetica,sans-serif;text-anchor:middle;" transform="matrix(1 0 0 1 2933.4 322)">Black</text>
  <line id="" style="fill:none;stroke:black;opacity:1;stroke-width:0.5;" x1="263" x2="3036" y1="1903" y2="1903"/>
  <g id="" transform="matrix(1 0 0 1 263 1933)">
   <path d="M9.24805 0.830078C13.5547 0.830078 17.1387-2.74414 17.1387-7.05078C17.1387-11.3574 13.5449-14.9316 9.23828-14.9316C4.94141-14.9316 1.36719-11.3574 1.36719-7.05078C1.36719-2.74414 4.95117 0.830078 9.24805 0.830078ZM9.24805-0.654297C5.70312-0.654297 2.87109-3.49609 2.87109-7.05078C2.87109-10.6055 5.69336-13.4473 9.23828-13.4473C12.793-13.4473 15.6348-10.6055 15.6445-7.05078C15.6543-3.49609 12.8027-0.654297 9.24805-0.654297ZM6.39648-6.31836L8.50586-6.31836L8.50586-4.19922C8.50586-3.75977 8.79883-3.45703 9.22852-3.45703C9.67773-3.45703 9.9707-3.75977 9.9707-4.19922L9.9707-6.31836L12.0996-6.31836C12.5391-6.31836 12.8418-6.61133 12.8418-7.04102C12.8418-7.48047 12.5391-7.7832 12.0996-7.7832L9.9707-7.7832L9.9707-9.89258C9.9707-10.3418 9.67773-10.6445 9.22852-10.6445C8.79883-10.6445 8.50586-10.3418 8.50586-9.89258L8.50586-7.7832L6.39648-7.7832C5.94727-7.7832 5.64453-7.48047 5.64453-7.04102C5.64453-6.61133 5.94727-6.31836 6.39648-6.31836Z"/>
  </g>
  <g id="" transform="matrix(1 0 0 1 281.506 1933)">
   <path d="M11.709 2.91016C17.1582 2.91016 21.6699-1.61133 21.6699-7.05078C21.6699-12.5 17.1484-17.0117 11.6992-17.0117C6.25977-17.0117 1.74805-12.5 1.74805-7.05078C1.74805-1.61133 6.26953 2.91016 11.709 2.91016ZM11.709 1.25C7.09961 1.25 3.41797-2.44141 3.41797-7.05078C3.41797-11.6602 7.08984-15.3516 11.6992-15.3516C16.3086-15.3516 20-11.6602 20.0098-7.05078C20.0195-2.44141 16.3184 1.25 11.709 1.25ZM7.98828-6.23047L10.8789-6.23047L10.8789-3.32031C10.8789-2.83203 11.2109-2.5 11.6895-2.5C12.1777-2.5 12.5195-2.83203 12.5195-3.32031L12.5195-6.23047L15.4297-6.23047C15.918-6.23047 16.25-6.5625 16.25-7.04102C16.25-7.5293 15.918-7.87109 15.4297-7.87109L12.5195-7.87109L12.5195-10.7617C12.5195-11.2695 12.1777-11.6016 11.6895-11.6016C11.2109-11.6016 10.8789-11.2598 10.8789-10.7617L10.8789-7.87109L7.98828-7.87109C7.48047-7.87109 7.14844-7.5293 7.14844-7.04102C7.14844-6.5625 7.49023-6.23047 7.98828-6.23047Z"/>
  </g>
  <g id="" transform="matrix(1 0 0 1 304.924 1933)">
   <path d="M14.9707 5.66406C21.9336 5.66406 27.6953-0.0976562 27.6953-7.05078C27.6953-14.0137 21.9238-19.7754 14.9609-19.7754C8.00781-19.7754 2.25586-14.0137 2.25586-7.05078C2.25586-0.0976562 8.01758 5.66406 14.9707 5.66406ZM14.9707 3.84766C8.93555 3.84766 4.08203-1.01562 4.08203-7.05078C4.08203-13.0957 8.92578-17.9492 14.9609-17.9492C21.0059-17.9492 25.8594-13.0957 25.8691-7.05078C25.8789-1.01562 21.0156 3.84766 14.9707 3.84766ZM10.0586-6.14258L14.0625-6.14258L14.0625-2.12891C14.0625-1.5918 14.4336-1.2207 14.9512-1.2207C15.4883-1.2207 15.8594-1.5918 15.8594-2.12891L15.8594-6.14258L19.8828-6.14258C20.4102-6.14258 20.791-6.51367 20.791-7.03125C20.791-7.56836 20.4199-7.94922 19.8828-7.94922L15.8594-7.94922L15.8594-11.9531C15.8594-12.5098 15.4883-12.8809 14.9512-12.8809C14.4336-12.8809 14.0625-12.5 14.0625-11.9531L14.0625-7.94922L10.0586-7.94922C9.50195-7.94922 9.13086-7.56836 9.13086-7.03125C9.13086-6.51367 9.51172-6.14258 10.0586-6.14258Z"/>
  </g>
  <text style="stroke:none;fill:black;font-family:-apple-system,&quot;SF Pro Display&quot;,&quot;SF Pro Text&quot;,Helvetica,sans-serif;font-weight:bold;" transform="matrix(1 0 0 1 263 1953)">Design Variations</text>
  <text style="stroke:none;fill:black;font-family:-apple-system,&quot;SF Pro Display&quot;,&quot;SF Pro Text&quot;,Helvetica,sans-serif;" transform="matrix(1 0 0 1 263 1971)">Symbols are supported in up to nine weights and three scales.</text>
  <text style="stroke:none;fill:black;font-family:-apple-system,&quot;SF Pro Display&quot;,&quot;SF Pro Text&quot;,Helvetica,sans-serif;" transform="matrix(1 0 0 1 263 1989)">For optimal layout with text and other symbols, vertically align</text>
  <text style="stroke:none;fill:black;font-family:-apple-system,&quot;SF Pro Display&quot;,&quot;SF Pro Text&quot;,Helvetica,sans-serif;" transform="matrix(1 0 0 1 263 2007)">symbols with the adjacent text.</text>
  <line id="" style="fill:none;stroke:#00AEEF;stroke-width:0.5;opacity:1.0;" x1="776" x2="776" y1="1919" y2="1933"/>
  <g id="" transform="matrix(1 0 0 1 776 1933)">
   <path d="M3.31055 0.126953C3.82812 0.126953 4.08203-0.0683594 4.26758-0.605469L5.52734-4.0625L11.2891-4.0625L12.5488-0.605469C12.7344-0.0683594 12.9883 0.126953 13.4961 0.126953C14.0137 0.126953 14.3457-0.185547 14.3457-0.673828C14.3457-0.839844 14.3164-0.986328 14.2383-1.20117L9.6582-13.3887C9.43359-13.9941 9.0332-14.2871 8.4082-14.2871C7.80273-14.2871 7.39258-13.9941 7.17773-13.3984L2.59766-1.19141C2.51953-0.976562 2.49023-0.830078 2.49023-0.664062C2.49023-0.175781 2.80273 0.126953 3.31055 0.126953ZM6.00586-5.53711L8.37891-12.1094L8.42773-12.1094L10.8008-5.53711Z"/>
  </g>
  <line id="" style="fill:none;stroke:#00AEEF;stroke-width:0.5;opacity:1.0;" x1="792.836" x2="792.836" y1="1919" y2="1933"/>
  <text style="stroke:none;fill:black;font-family:-apple-system,&quot;SF Pro Display&quot;,&quot;SF Pro Text&quot;,Helvetica,sans-serif;font-weight:bold;" transform="matrix(1 0 0 1 776 1953)">Margins</text>
  <text style="stroke:none;fill:black;font-family:-apple-system,&quot;SF Pro Display&quot;,&quot;SF Pro Text&quot;,Helvetica,sans-serif;" transform="matrix(1 0 0 1 776 1971)">Leading and trailing margins on the left and right side of each symbol</text>
  <text style="stroke:none;fill:black;font-family:-apple-system,&quot;SF Pro Display&quot;,&quot;SF Pro Text&quot;,Helvetica,sans-serif;" transform="matrix(1 0 0 1 776 1989)">can be adjusted by modifying the x-location of the margin guidelines.</text>
  <text style="stroke:none;fill:black;font-family:-apple-system,&quot;SF Pro Display&quot;,&quot;SF Pro Text&quot;,Helvetica,sans-serif;" transform="matrix(1 0 0 1 776 2007)">Modifications are automatically applied proportionally to all</text>
  <text style="stroke:none;fill:black;font-family:-apple-system,&quot;SF Pro Display&quot;,&quot;SF Pro Text&quot;,Helvetica,sans-serif;" transform="matrix(1 0 0 1 776 2025)">scales and weights.</text>
  <g id="" transform="matrix(1 0 0 1 1289 1933)">
   <path d="M2.8418 1.86523L4.54102 3.57422C5.40039 4.44336 6.38672 4.38477 7.31445 3.35938L17.4902-7.85156C17.7539-7.76367 18.0273-7.7832 18.3398-7.8418L19.4043-8.03711L20.0684-7.36328L20.0293-6.80664C19.9902-6.30859 20.1172-5.92773 20.6055-5.44922L21.3672-4.70703C21.8457-4.22852 22.4609-4.19922 22.9297-4.66797L25.8398-7.58789C26.3086-8.05664 26.2891-8.65234 25.8105-9.13086L25.0391-9.89258C24.5605-10.3711 24.1895-10.5273 23.7109-10.4883L23.1348-10.4395L22.4902-11.0742L22.7344-12.1973C22.8613-12.7637 22.7051-13.2031 22.1191-13.7891L19.9219-15.9766C16.582-19.2969 12.1484-19.2188 9.25781-16.3281C8.83789-15.918 8.80859-15.3418 9.04297-14.9512C9.27734-14.5898 9.73633-14.3555 10.3809-14.5215C11.8457-14.8633 13.3691-14.9219 14.7949-13.9844L14.209-12.5293C14.0137-12.0508 13.9844-11.6504 14.1113-11.2891L3.04688-0.898438C2.06055 0.0195312 1.98242 0.996094 2.8418 1.86523ZM10.752-15.957C13.1836-17.7344 16.4746-17.4316 18.7012-15.2051L21.1328-12.793C21.3672-12.5586 21.4062-12.373 21.3379-12.0312L21.0156-10.5469L22.5195-9.0625L23.5059-9.12109C23.7598-9.13086 23.8379-9.11133 24.0332-8.91602L24.6094-8.33984L22.168-5.89844L21.5918-6.47461C21.3965-6.66992 21.3672-6.74805 21.377-7.01172L21.4453-7.98828L19.9512-9.47266L18.4277-9.21875C18.1055-9.15039 17.959-9.17969 17.7148-9.41406L15.7129-11.416C15.459-11.6504 15.4297-11.8164 15.5859-12.1875L16.4648-14.2773C14.9023-15.7324 12.8711-16.3574 10.8398-15.7617C10.6836-15.7227 10.625-15.8496 10.752-15.957ZM5.27344 2.30469L4.10156 1.14258C3.63281 0.683594 3.74023 0.341797 4.14062-0.0195312L14.9512-10.1953L16.416-8.71094L6.42578 2.27539C6.07422 2.67578 5.74219 2.77344 5.27344 2.30469Z"/>
  </g>
  <text style="stroke:none;fill:black;font-family:-apple-system,&quot;SF Pro Display&quot;,&quot;SF Pro Text&quot;,Helvetica,sans-serif;font-weight:bold;" transform="matrix(1 0 0 1 1289 1953)">Exporting</text>
  <text style="stroke:none;fill:black;font-family:-apple-system,&quot;SF Pro Display&quot;,&quot;SF Pro Text&quot;,Helvetica,sans-serif;" transform="matrix(1 0 0 1 1289 1971)">Symbols should be outlined when exporting to ensure the</text>
  <text style="stroke:none;fill:black;font-family:-apple-system,&quot;SF Pro Display&quot;,&quot;SF Pro Text&quot;,Helvetica,sans-serif;" transform="matrix(1 0 0 1 1289 1989)">design is preserved when submitting to Xcode.</text>
  <text id="template-version" style="stroke:none;fill:black;font-family:-apple-system,&quot;SF Pro Display&quot;,&quot;SF Pro Text&quot;,Helvetica,sans-serif;text-anchor:end;" transform="matrix(1 0 0 1 3036 1933)">Template v.2.0</text>
  <text style="stroke:none;fill:black;font-family:-apple-system,&quot;SF Pro Display&quot;,&quot;SF Pro Text&quot;,Helvetica,sans-serif;text-anchor:end;" transform="matrix(1 0 0 1 3036 1951)">Requires Xcode 12 or greater</text>
  <text style="stroke:none;fill:black;font-family:-apple-system,&quot;SF Pro Display&quot;,&quot;SF Pro Text&quot;,Helvetica,sans-serif;text-anchor:end;" transform="matrix(1 0 0 1 3036 1969)">Generated from questionmark.square</text>
  <text style="stroke:none;fill:black;font-family:-apple-system,&quot;SF Pro Display&quot;,&quot;SF Pro Text&quot;,Helvetica,sans-serif;text-anchor:end;" transform="matrix(1 0 0 1 3036 1987)">Typeset at 100 points</text>
  <text style="stroke:none;fill:black;font-family:-apple-system,&quot;SF Pro Display&quot;,&quot;SF Pro Text&quot;,Helvetica,sans-serif;" transform="matrix(1 0 0 1 263 726)">Small</text>
  <text style="stroke:none;fill:black;font-family:-apple-system,&quot;SF Pro Display&quot;,&quot;SF Pro Text&quot;,Helvetica,sans-serif;" transform="matrix(1 0 0 1 263 1156)">Medium</text>
  <text style="stroke:none;fill:black;font-family:-apple-system,&quot;SF Pro Display&quot;,&quot;SF Pro Text&quot;,Helvetica,sans-serif;" transform="matrix(1 0 0 1 263 1586)">Large</text>
 </g>
 <g id="Guides">
  <g id="H-reference" style="fill:#27AAE1;stroke:none;" transform="matrix(1 0 0 1 339 696)">
   <path d="M0.976562 0L3.66211 0L12.9883-24.4629L45.752-24.4629L55.127 0L57.7637 0L30.6152-70.459L28.125-70.459ZM29.3457-67.1387L29.4434-67.1387L44.873-26.709L13.8672-26.709Z"/>
  </g>
  <line id="Baseline-S" style="fill:none;stroke:#27AAE1;opacity:1;stroke-width:0.5;" x1="263" x2="3036" y1="696" y2="696"/>
  <line id="Capline-S" style="fill:none;stroke:#27AAE1;opacity:1;stroke-width:0.5;" x1="263" x2="3036" y1="625.541" y2="625.541"/>
  <g id="H-reference" style="fill:#27AAE1;stroke:none;" transform="matrix(1 0 0 1 339 1126)">
   <path d="M0.976562 0L3.66211 0L12.9883-24.4629L45.752-24.4629L55.127 0L57.7637 0L30.6152-70.459L28.125-70.459ZM29.3457-67.1387L29.4434-67.1387L44.873-26.709L13.8672-26.709Z"/>
  </g>
  <line id="Baseline-M" style="fill:none;stroke:#27AAE1;opacity:1;stroke-width:0.5;" x1="263" x2="3036" y1="1126" y2="1126"/>
  <line id="Capline-M" style="fill:none;stroke:#27AAE1;opacity:1;stroke-width:0.5;" x1="263" x2="3036" y1="1055.54" y2="1055.54"/>
  <g id="H-reference" style="fill:#27AAE1;stroke:none;" transform="matrix(1 0 0 1 339 1556)">
   <path d="M0.976562 0L3.66211 0L12.9883-24.4629L45.752-24.4629L55.127 0L57.7637 0L30.6152-70.459L28.125-70.459ZM29.3457-67.1387L29.4434-67.1387L44.873-26.709L13.8672-26.709Z"/>
  </g>
  <line id="Baseline-L" style="fill:none;stroke:#27AAE1;opacity:1;stroke-width:0.5;" x1="263" x2="3036" y1="1556" y2="1556"/>
  <line id="Capline-L" style="fill:none;stroke:#27AAE1;opacity:1;stroke-width:0.5;" x1="263" x2="3036" y1="1485.54" y2="1485.54"/>
  <line id="left-margin" style="fill:none;stroke:#00AEEF;stroke-width:0.5;opacity:1.0;" x1="1392.45" x2="1392.45" y1="1030.79" y2="1150.12"/>
  <line id="right-margin" style="fill:none;stroke:#00AEEF;stroke-width:0.5;opacity:1.0;" x1="1507.24" x2="1507.24" y1="1030.79" y2="1150.12"/>
 </g>
 <g id="Symbols">
  <g id="Black-L" transform="matrix(1 0 0 1 2855.62 1556)">
   <path d="M39.9902 26.5137L115.576 26.5137C130.811 26.5137 139.502 17.8711 139.502 2.68555L139.502-73.0957C139.502-88.2812 130.811-96.875 115.576-96.875L39.9902-96.875C24.7559-96.875 16.0645-88.2812 16.0645-73.0957L16.0645 2.68555C16.0645 17.8711 24.7559 26.5137 39.9902 26.5137ZM42.6758 6.29883C38.4766 6.29883 36.3281 4.39453 36.3281-0.146484L36.3281-70.2148C36.3281-74.7559 38.4766-76.6602 42.6758-76.6602L112.842-76.6602C117.09-76.6602 119.238-74.7559 119.238-70.2148L119.238-0.146484C119.238 4.39453 117.09 6.29883 112.842 6.29883ZM76.0254-24.2188C80.5664-24.2188 83.8867-26.416 84.5703-29.3457C84.6191-29.541 84.7168-29.834 84.7656-29.9805C85.498-32.373 88.3301-34.2773 91.4062-36.1816C97.998-40.2832 100.977-43.75 100.977-50.4395C100.977-61.1816 90.9668-68.3105 78.1738-68.3105C67.3828-68.3105 59.3262-64.1113 56.5918-57.9102C56.0059-56.5918 55.7129-55.3711 55.7129-53.9551C55.7129-50.1465 58.6426-46.9727 64.0137-46.9727C68.2129-46.9727 69.9219-48.9258 71.582-50.5371C73.6816-52.4902 75.1465-53.2715 77.0996-53.2715C79.6387-53.2715 81.3477-51.7578 81.3477-49.3652C81.3477-46.7285 78.7109-44.8242 73.9746-41.6016C69.6777-38.623 66.6992-35.7422 66.6992-31.4941L66.6992-31.2988C66.6992-26.6602 70.0195-24.2188 76.0254-24.2188ZM76.0742-3.07617C81.4941-3.07617 85.498-6.20117 85.498-11.377C85.498-16.4551 81.4941-19.6777 76.0742-19.6777C70.6055-19.6777 66.5039-16.5039 66.5039-11.377C66.5039-6.25 70.6055-3.07617 76.0742-3.07617Z"/>
  </g>
  <g id="Heavy-L" transform="matrix(1 0 0 1 2559.93 1556)">
   <path d="M38.8184 25.4883L114.697 25.4883C129.346 25.4883 137.451 17.4316 137.451 2.88086L137.451-73.2422C137.451-87.793 129.346-95.8496 114.697-95.8496L38.8184-95.8496C24.2188-95.8496 16.0645-87.793 16.0645-73.2422L16.0645 2.88086C16.0645 17.4316 24.2188 25.4883 38.8184 25.4883ZM40.918 8.00781C36.084 8.00781 33.5938 5.71289 33.5938 0.585938L33.5938-70.9473C33.5938-76.0742 36.084-78.3691 40.918-78.3691L112.549-78.3691C117.383-78.3691 119.922-76.0742 119.922-70.9473L119.922 0.585938C119.922 5.71289 117.383 8.00781 112.549 8.00781ZM75.1465-23.7793C79.248-23.7793 82.1777-25.8301 82.7148-28.6133C82.7637-28.8574 82.7637-29.1504 82.8125-29.3457C83.3984-32.0312 86.0352-34.0332 89.4531-36.2305C95.9473-40.332 99.1699-43.8477 99.1699-50.6348C99.1699-61.1328 89.4531-67.9199 77.1973-67.9199C66.4551-67.9199 58.6914-63.4766 56.2012-57.3242C55.7129-56.1035 55.4688-54.9316 55.4688-53.6133C55.4688-50.0977 58.1543-47.3633 62.6953-47.3633C66.6504-47.3633 68.0664-49.2676 69.7266-50.9766C71.7285-53.4668 73.6328-54.7363 76.2695-54.7363C79.7363-54.7363 81.9824-52.7344 81.9824-49.707C81.9824-46.6797 79.3457-44.7266 74.4141-41.3086C69.9707-38.2812 66.9922-35.2539 66.9922-30.6152L66.9922-30.1758C66.9922-25.9766 69.9219-23.7793 75.1465-23.7793ZM75.1465-3.32031C80.0781-3.32031 83.7891-6.34766 83.7891-11.084C83.7891-15.7715 80.0781-18.7988 75.1465-18.7988C70.166-18.7988 66.3574-15.7715 66.3574-11.084C66.3574-6.39648 70.2148-3.32031 75.1465-3.32031Z"/>
  </g>
  <g id="Bold-L" transform="matrix(1 0 0 1 2264.37 1556)">
   <path d="M37.5 24.3652L113.721 24.3652C127.637 24.3652 135.156 16.8945 135.156 3.07617L135.156-73.3887C135.156-87.207 127.637-94.7266 113.721-94.7266L37.5-94.7266C23.6328-94.7266 16.0645-87.2559 16.0645-73.3887L16.0645 3.07617C16.0645 16.8945 23.6328 24.3652 37.5 24.3652ZM38.9648 9.91211C33.4473 9.91211 30.5176 7.17773 30.5176 1.41602L30.5176-71.7285C30.5176-77.5391 33.4473-80.2734 38.9648-80.2734L112.256-80.2734C117.725-80.2734 120.703-77.5391 120.703-71.7285L120.703 1.41602C120.703 7.17773 117.725 9.91211 112.256 9.91211ZM74.1699-23.291C77.7832-23.291 80.2246-25.2441 80.6152-27.7832C80.6152-28.0762 80.6641-28.418 80.6641-28.6621C81.0547-31.6895 83.4473-33.7891 87.2559-36.2793C93.7012-40.3809 97.1191-43.9453 97.1191-50.8789C97.1191-61.1328 87.7441-67.5293 76.123-67.5293C65.4297-67.5293 57.959-62.793 55.8594-56.6895C55.4199-55.5664 55.1758-54.4434 55.1758-53.2227C55.1758-50.0977 57.6172-47.8516 61.2305-47.8516C64.8438-47.8516 65.9668-49.6582 67.627-51.5137C69.5312-54.541 71.9727-56.2988 75.3906-56.2988C79.7852-56.2988 82.666-53.8086 82.666-50.0977C82.666-46.6309 80.0781-44.5801 74.8535-40.9668C70.3613-37.8418 67.334-34.7168 67.334-29.6387L67.334-28.9551C67.334-25.2441 69.7754-23.291 74.1699-23.291ZM74.1211-3.56445C78.4668-3.56445 81.9336-6.49414 81.9336-10.7422C81.9336-14.9414 78.5156-17.8711 74.1211-17.8711C69.6777-17.8711 66.2109-14.9414 66.2109-10.7422C66.2109-6.54297 69.7266-3.56445 74.1211-3.56445Z"/>
  </g>
  <g id="Semibold-L" transform="matrix(1 0 0 1 1968.44 1556)">
   <path d="M36.6211 23.584L113.037 23.584C126.514 23.584 133.594 16.5039 133.594 3.17383L133.594-73.5352C133.594-86.8164 126.514-93.9453 113.037-93.9453L36.6211-93.9453C23.1934-93.9453 16.0645-86.8652 16.0645-73.5352L16.0645 3.17383C16.0645 16.5527 23.1934 23.584 36.6211 23.584ZM37.5977 11.2793C31.6406 11.2793 28.418 8.20312 28.418 1.95312L28.418-72.3145C28.418-78.5156 31.6406-81.5918 37.5977-81.5918L112.061-81.5918C117.969-81.5918 121.24-78.5156 121.24-72.3145L121.24 1.95312C121.24 8.20312 117.969 11.2793 112.061 11.2793ZM73.4863-22.9492C76.7578-22.9492 78.9062-24.8047 79.1504-27.2461C79.1504-27.5391 79.1992-27.8809 79.1992-28.1738C79.4434-31.4453 81.6895-33.5938 85.791-36.2793C92.1387-40.4297 95.752-44.043 95.752-51.0254C95.752-61.1328 86.5723-67.2363 75.3906-67.2363C64.7461-67.2363 57.4707-62.3047 55.5664-56.25C55.1758-55.1758 54.9805-54.1016 54.9805-52.9785C54.9805-50.0977 57.2266-48.1934 60.2051-48.1934C63.5742-48.1934 64.5508-49.9023 66.1621-51.8555C68.0176-55.2734 70.8008-57.4219 74.8047-57.4219C79.8828-57.4219 83.1055-54.541 83.1055-50.3418C83.1055-46.582 80.5664-44.4824 75.1953-40.7227C70.6055-37.5488 67.5781-34.375 67.5781-29.0039L67.5781-28.125C67.5781-24.707 69.6777-22.9492 73.4863-22.9492ZM73.3887-3.75977C77.3926-3.75977 80.6152-6.5918 80.6152-10.498C80.6152-14.4043 77.4414-17.2363 73.3887-17.2363C69.3359-17.2363 66.1133-14.3555 66.1133-10.498C66.1133-6.64062 69.3848-3.75977 73.3887-3.75977Z"/>
  </g>
  <g id="Medium-L" transform="matrix(1 0 0 1 1672.31 1556)">
   <path d="M35.9375 22.998L112.5 22.998C125.635 22.998 132.422 16.2109 132.422 3.27148L132.422-73.6328C132.422-86.5234 125.635-93.3105 112.5-93.3105L35.9375-93.3105C22.9004-93.3105 16.0645-86.5723 16.0645-73.6328L16.0645 3.27148C16.0645 16.2598 22.9004 22.998 35.9375 22.998ZM36.5723 12.2559C30.2246 12.2559 26.8066 8.98438 26.8066 2.39258L26.8066-72.7051C26.8066-79.2969 30.2246-82.6172 36.5723-82.6172L111.865-82.6172C118.115-82.6172 121.68-79.2969 121.68-72.7051L121.68 2.39258C121.68 8.98438 118.115 12.2559 111.865 12.2559ZM72.9492-22.7051C75.9766-22.7051 77.9297-24.5117 78.0273-26.8066C78.0762-27.1484 78.0762-27.4902 78.0762-27.832C78.2227-31.25 80.3223-33.4473 84.6191-36.2793C90.918-40.4297 94.6777-44.0918 94.6777-51.123C94.6777-61.084 85.6934-66.9922 74.8047-66.9922C64.209-66.9922 57.1289-61.9141 55.3711-55.9082C55.0293-54.8828 54.834-53.8574 54.834-52.7832C54.834-50.0977 56.9336-48.4375 59.4238-48.4375C62.6465-48.4375 63.4277-50.0977 65.0879-52.0996C66.8457-55.8105 69.9219-58.252 74.3164-58.252C79.8828-58.252 83.4961-55.127 83.4961-50.5859C83.4961-46.582 80.9082-44.3848 75.4395-40.5762C70.8008-37.3535 67.7246-34.082 67.7246-28.5156L67.7246-27.4902C67.7246-24.3164 69.6289-22.7051 72.9492-22.7051ZM72.8516-3.90625C76.5625-3.90625 79.6387-6.64062 79.6387-10.3027C79.6387-13.9648 76.6113-16.6992 72.8516-16.6992C69.0918-16.6992 66.0645-13.9648 66.0645-10.3027C66.0645-6.68945 69.1406-3.90625 72.8516-3.90625Z"/>
  </g>
  <g id="Regular-L" transform="matrix(1 0 0 1 1376.38 1556)">
   <path d="M35.0586 22.2168L111.816 22.2168C124.463 22.2168 130.859 15.8691 130.859 3.41797L130.859-73.7305C130.859-86.1816 124.463-92.5293 111.816-92.5293L35.0586-92.5293C22.4609-92.5293 16.0645-86.2305 16.0645-73.7305L16.0645 3.41797C16.0645 15.918 22.4609 22.2168 35.0586 22.2168ZM35.2539 13.5742C28.418 13.5742 24.707 9.96094 24.707 2.97852L24.707-73.291C24.707-80.2734 28.418-83.8867 35.2539-83.8867L111.67-83.8867C118.359-83.8867 122.217-80.2734 122.217-73.291L122.217 2.97852C122.217 9.96094 118.359 13.5742 111.67 13.5742ZM72.2656-22.3633C75-22.3633 76.6113-24.0723 76.6113-26.2695L76.6113-27.3438C76.6113-31.0059 78.6133-33.252 83.1543-36.3281C89.3555-40.4785 93.3105-44.1406 93.3105-51.2695C93.3105-61.084 84.5215-66.6992 74.0723-66.6992C63.5254-66.6992 56.6406-61.4258 55.127-55.4688C54.834-54.4922 54.6387-53.5156 54.6387-52.4902C54.6387-50.0977 56.543-48.7305 58.3984-48.7305C61.4258-48.7305 62.0117-50.3906 63.623-52.4414C65.3809-56.543 68.75-59.3262 73.7305-59.3262C79.9316-59.3262 83.9355-55.8594 83.9355-50.8301C83.9355-46.5332 81.3965-44.2871 75.7324-40.332C71.0449-37.0605 67.9688-33.7402 67.9688-27.832L67.9688-26.6602C67.9688-23.8281 69.5312-22.3633 72.2656-22.3633ZM72.168-4.05273C75.4883-4.05273 78.3691-6.73828 78.3691-10.0586C78.3691-13.4277 75.5371-16.0645 72.168-16.0645C68.75-16.0645 65.9668-13.3789 65.9668-10.0586C65.9668-6.78711 68.7988-4.05273 72.168-4.05273Z"/>
  </g>
  <g id="Light-L" transform="matrix(1 0 0 1 1080.5 1556)">
   <path d="M34.0332 21.4355L111.23 21.4355C123.096 21.4355 129.199 15.2344 129.199 3.56445L129.199-73.8281C129.199-85.5469 123.096-91.6992 111.23-91.6992L34.0332-91.6992C22.168-91.6992 16.0645-85.6445 16.0645-73.8281L16.0645 3.56445C16.0645 15.3809 22.168 21.4355 34.0332 21.4355ZM34.1797 14.7949C26.709 14.7949 22.7051 10.8398 22.7051 3.22266L22.7051-73.4863C22.7051-81.1523 26.709-85.0586 34.1797-85.0586L111.035-85.0586C118.359-85.0586 122.559-81.1523 122.559-73.4863L122.559 3.22266C122.559 10.8398 118.359 14.7949 111.035 14.7949ZM71.4844-22.5098C73.5352-22.5098 74.8047-23.877 74.8047-25.6348L74.8047-27.1973C74.8047-31.0059 76.709-33.3496 81.4453-36.5723C87.8418-40.8691 91.1621-44.5801 91.1621-51.123C91.1621-60.0098 83.2031-65.6738 73.0957-65.6738C62.8906-65.6738 56.2988-60.1562 55.0781-53.9062C54.8828-53.0273 54.7363-52.1484 54.7363-51.2207C54.7363-49.3164 56.2012-48.2422 57.7148-48.2422C60.0098-48.2422 60.5957-49.5117 61.6211-51.2207C62.8906-56.1523 66.7969-59.8633 72.8027-59.8633C79.6875-59.8633 84.0332-56.1035 84.0332-50.7324C84.0332-46.4355 81.6895-43.9453 75.7812-39.8438C70.8008-36.377 68.1641-33.1055 68.1641-27.5879L68.1641-25.8789C68.1641-23.7305 69.4336-22.5098 71.4844-22.5098ZM71.3867-4.93164C74.3164-4.93164 76.7578-7.32422 76.7578-10.2051C76.7578-13.1348 74.3652-15.4785 71.3867-15.4785C68.4082-15.4785 66.0156-13.0859 66.0156-10.2051C66.0156-7.37305 68.457-4.93164 71.3867-4.93164Z"/>
  </g>
  <g id="Thin-L" transform="matrix(1 0 0 1 784.889 1556)">
   <path d="M32.666 20.3613L110.352 20.3613C121.24 20.3613 127.002 14.4531 127.002 3.75977L127.002-73.9746C127.002-84.7168 121.24-90.5762 110.352-90.5762L32.666-90.5762C21.7773-90.5762 16.0645-84.8633 16.0645-73.9746L16.0645 3.75977C16.0645 14.6484 21.7773 20.3613 32.666 20.3613ZM32.8125 16.4062C24.4141 16.4062 19.9707 12.0117 19.9707 3.56445L19.9707-73.7793C19.9707-82.2754 24.4141-86.6699 32.8125-86.6699L110.205-86.6699C118.359-86.6699 123.047-82.2754 123.047-73.7793L123.047 3.56445C123.047 12.0117 118.359 16.4062 110.205 16.4062ZM70.459-22.7539C71.6797-22.7539 72.4609-23.584 72.4609-24.8047L72.4609-26.9531C72.4609-31.0059 74.1699-33.3984 79.248-36.8652C85.8398-41.4062 88.3789-45.1172 88.3789-50.9277C88.3789-58.6426 81.4453-64.2578 71.7773-64.2578C62.0605-64.2578 55.8594-58.4961 55.0293-51.9043C54.9316-51.123 54.834-50.3906 54.834-49.5605C54.834-48.3398 55.7129-47.6074 56.7871-47.6074C58.1055-47.6074 58.7402-48.3398 58.9844-49.5605C59.668-55.6152 64.209-60.5957 71.582-60.5957C79.2969-60.5957 84.1797-56.3965 84.1797-50.6348C84.1797-46.3379 82.0312-43.5059 75.8301-39.209C70.5078-35.498 68.457-32.2754 68.457-27.2461L68.457-24.8535C68.457-23.584 69.2871-22.7539 70.459-22.7539ZM70.4102-6.10352C72.8027-6.10352 74.707-8.10547 74.707-10.3516C74.707-12.6953 72.8027-14.6484 70.4102-14.6484C67.9688-14.6484 66.0645-12.6953 66.0645-10.3516C66.0645-8.10547 68.0176-6.10352 70.4102-6.10352Z"/>
  </g>
  <g id="Ultralight-L" transform="matrix(1 0 0 1 488.739 1556)">
   <path d="M31.9824 19.7754L109.961 19.7754C120.312 19.7754 125.879 14.0625 125.879 3.85742L125.879-74.0723C125.879-84.2773 120.312-89.9902 109.961-89.9902L31.9824-89.9902C21.582-89.9902 16.0645-84.4727 16.0645-74.0723L16.0645 3.85742C16.0645 14.2578 21.582 19.7754 31.9824 19.7754ZM32.1289 17.2363C23.1934 17.2363 18.6035 12.6465 18.6035 3.75977L18.6035-73.9258C18.6035-82.8125 23.1934-87.4512 32.1289-87.4512L109.766-87.4512C118.359-87.4512 123.291-82.8125 123.291-73.9258L123.291 3.75977C123.291 12.6465 118.359 17.2363 109.766 17.2363ZM69.9707-22.8516C70.7031-22.8516 71.2402-23.4375 71.2402-24.3652L71.2402-26.8555C71.2402-31.0059 72.9004-33.4473 78.125-37.0605C84.8145-41.6992 86.9629-45.3613 86.9629-50.8301C86.9629-57.9102 80.5664-63.5742 71.0938-63.5742C61.6211-63.5742 55.6152-57.6172 54.9805-50.8301C54.9316-50.1465 54.8828-49.4629 54.8828-48.6816C54.8828-47.8027 55.4688-47.2656 56.2988-47.2656C57.1289-47.2656 57.7637-47.7539 57.666-48.6816C57.959-55.3223 62.8906-60.9375 70.9473-60.9375C79.1016-60.9375 84.2285-56.5918 84.2285-50.5859C84.2285-46.2402 82.1777-43.2617 75.8301-38.916C70.3613-35.0586 68.6035-31.8359 68.6035-27.0508L68.6035-24.3164C68.6035-23.4863 69.1895-22.8516 69.9707-22.8516ZM69.873-6.68945C72.0215-6.68945 73.6328-8.54492 73.6328-10.4492C73.6328-12.5 71.9727-14.2578 69.873-14.2578C67.7734-14.2578 66.1133-12.5 66.1133-10.4492C66.1133-8.49609 67.7734-6.68945 69.873-6.68945Z"/>
  </g>
  <g id="Black-M" transform="matrix(1 0 0 1 2872.19 1126)">
   <path d="M31.9824 13.5742L90.4297 13.5742C102.686 13.5742 109.961 6.29883 109.961-5.95703L109.961-64.4043C109.961-76.6602 102.686-83.9355 90.4297-83.9355L31.9824-83.9355C19.7266-83.9355 12.4512-76.6602 12.4512-64.4043L12.4512-5.95703C12.4512 6.29883 19.7266 13.5742 31.9824 13.5742ZM34.9121-4.73633C32.0801-4.73633 30.7617-5.81055 30.7617-8.88672L30.7617-61.4746C30.7617-64.5508 32.0801-65.6738 34.9121-65.6738L87.5-65.6738C90.332-65.6738 91.6504-64.5508 91.6504-61.4746L91.6504-8.88672C91.6504-5.81055 90.332-4.73633 87.5-4.73633ZM59.7168-27.3926C63.4766-27.3926 66.3574-29.0039 67.1387-31.3477C67.1875-31.4941 67.2363-31.7871 67.334-31.8848C68.1641-33.4473 70.5566-34.8633 72.5586-36.084C77.8809-39.3066 79.5898-41.9434 79.5898-46.6797C79.5898-54.7852 71.8262-60.791 61.3281-60.791C53.125-60.791 46.6797-57.7637 44.2871-52.7832C43.7988-51.709 43.5547-50.6836 43.5547-49.5117C43.5547-46.3867 45.8984-43.457 51.0254-43.457C54.2969-43.457 55.9082-44.9219 56.9824-45.8008C58.4473-47.1191 59.2285-47.6074 60.3027-47.6074C61.4746-47.6074 62.2559-46.875 62.2559-45.7031C62.2559-44.1895 60.2539-42.6758 56.7871-40.332C53.418-38.0371 51.416-35.8887 51.416-33.3496L51.416-33.252C51.416-29.3945 54.3457-27.3926 59.7168-27.3926ZM59.7656-10.4492C64.4043-10.4492 67.6758-12.8906 67.6758-17.2363C67.6758-21.4844 64.4043-23.9746 59.7656-23.9746C55.127-23.9746 51.7578-21.5332 51.7578-17.2363C51.7578-12.8906 55.127-10.4492 59.7656-10.4492Z"/>
  </g>
  <g id="Heavy-M" transform="matrix(1 0 0 1 2576.39 1126)">
   <path d="M31.0059 12.6465L89.6484 12.6465C101.416 12.6465 108.154 5.9082 108.154-5.81055L108.154-64.5508C108.154-76.2695 101.416-83.0566 89.6484-83.0566L31.0059-83.0566C19.2383-83.0566 12.4512-76.3184 12.4512-64.5508L12.4512-5.81055C12.4512 5.9082 19.2383 12.6465 31.0059 12.6465ZM33.252-3.17383C29.9316-3.17383 28.2715-4.63867 28.2715-8.1543L28.2715-62.207C28.2715-65.7715 29.9316-67.2363 33.252-67.2363L87.3535-67.2363C90.6738-67.2363 92.334-65.7715 92.334-62.207L92.334-8.1543C92.334-4.63867 90.6738-3.17383 87.3535-3.17383ZM58.9355-26.8555C62.4023-26.8555 64.9414-28.4668 65.5273-30.7129C65.5762-30.8594 65.625-31.1035 65.6738-31.25C66.3086-33.0566 68.5059-34.5703 70.8496-36.0352C76.0254-39.2578 78.125-41.9434 78.125-46.9238C78.125-55.0293 70.5078-60.6934 60.5469-60.6934C52.2949-60.6934 46.0449-57.4219 43.8965-52.5391C43.457-51.5137 43.2617-50.5859 43.2617-49.4629C43.2617-46.582 45.459-44.0918 49.7559-44.0918C52.8809-44.0918 54.248-45.5078 55.4199-46.6309C56.9336-48.2422 58.1055-49.0234 59.668-49.0234C61.6211-49.0234 62.8906-47.8516 62.8906-46.0938C62.8906-44.1406 60.8887-42.627 57.2266-40.1367C53.8574-37.793 51.6602-35.5469 51.6602-32.4707L51.6602-32.2266C51.6602-28.7109 54.248-26.8555 58.9355-26.8555ZM58.9844-10.498C63.1836-10.498 66.2598-12.8906 66.2598-16.8457C66.2598-20.8008 63.1836-23.1934 58.9844-23.1934C54.7363-23.1934 51.6113-20.8496 51.6113-16.8457C51.6113-12.8906 54.7363-10.498 58.9844-10.498Z"/>
  </g>
  <g id="Bold-M" transform="matrix(1 0 0 1 2280.68 1126)">
   <path d="M29.8828 11.6699L88.7207 11.6699C99.9512 11.6699 106.152 5.46875 106.152-5.66406L106.152-64.6973C106.152-75.8789 99.9512-82.0312 88.7207-82.0312L29.8828-82.0312C18.6523-82.0312 12.4512-75.8789 12.4512-64.6973L12.4512-5.66406C12.4512 5.51758 18.6523 11.6699 29.8828 11.6699ZM31.3965-1.41602C27.5391-1.41602 25.5371-3.27148 25.5371-7.32422L25.5371-63.0371C25.5371-67.1387 27.5391-68.9453 31.3965-68.9453L87.207-68.9453C91.0156-68.9453 93.0664-67.1387 93.0664-63.0371L93.0664-7.32422C93.0664-3.27148 91.0156-1.41602 87.207-1.41602ZM58.1055-26.2695C61.1816-26.2695 63.3789-27.8809 63.7695-29.9805C63.7695-30.1758 63.8184-30.4199 63.8672-30.5664C64.2578-32.7148 66.2598-34.2773 68.9941-35.9863C74.0234-39.209 76.5137-41.9434 76.5137-47.2168C76.5137-55.3223 69.043-60.498 59.668-60.498C51.3672-60.498 45.3613-57.0312 43.5059-52.2949C43.1152-51.3184 42.9199-50.4395 42.9199-49.4141C42.9199-46.7773 44.9707-44.7266 48.3398-44.7266C51.3672-44.7266 52.3926-46.1914 53.7109-47.5586C55.2246-49.5605 56.8359-50.5859 58.9844-50.5859C61.8164-50.5859 63.623-48.9746 63.623-46.5332C63.623-44.0918 61.6211-42.5781 57.7148-39.8926C54.2969-37.5 52.002-35.1562 52.002-31.4941L52.002-31.1035C52.002-27.9297 54.1504-26.2695 58.1055-26.2695ZM58.0566-10.5469C61.8164-10.5469 64.6484-12.8418 64.6484-16.4551C64.6484-20.0195 61.8164-22.3633 58.0566-22.3633C54.2969-22.3633 51.416-20.0195 51.416-16.4551C51.416-12.8906 54.3457-10.5469 58.0566-10.5469Z"/>
  </g>
  <g id="Semibold-M" transform="matrix(1 0 0 1 1984.65 1126)">
   <path d="M29.1016 10.9863L88.0859 10.9863C98.9746 10.9863 104.785 5.17578 104.785-5.56641L104.785-64.8438C104.785-75.5859 98.9746-81.3477 88.0859-81.3477L29.1016-81.3477C18.2617-81.3477 12.4512-75.5859 12.4512-64.8438L12.4512-5.56641C12.4512 5.22461 18.2617 10.9863 29.1016 10.9863ZM30.127-0.195312C25.8789-0.195312 23.6328-2.34375 23.6328-6.78711L23.6328-63.623C23.6328-68.0664 25.8789-70.166 30.127-70.166L87.1094-70.166C91.2598-70.166 93.6035-68.0664 93.6035-63.623L93.6035-6.78711C93.6035-2.34375 91.2598-0.195312 87.1094-0.195312ZM57.4707-25.8789C60.3516-25.8789 62.3047-27.4414 62.5488-29.4922C62.5488-29.6875 62.5488-29.8828 62.5977-30.0781C62.8418-32.4219 64.6973-34.0332 67.6758-35.9863C72.6074-39.1602 75.4395-41.9434 75.4395-47.4121C75.4395-55.5176 68.0664-60.4004 59.0332-60.4004C50.6836-60.4004 44.9219-56.7383 43.2129-52.0996C42.8711-51.2207 42.6758-50.3418 42.6758-49.4141C42.6758-46.9238 44.6289-45.2148 47.3633-45.2148C50.293-45.2148 51.123-46.6309 52.5391-48.1934C54.1016-50.4395 55.957-51.709 58.4961-51.709C61.9141-51.709 64.1113-49.7559 64.1113-46.8262C64.1113-44.0918 62.1094-42.5293 58.0566-39.7461C54.6387-37.3535 52.1973-34.9121 52.1973-30.8105L52.1973-30.3711C52.1973-27.3926 54.1016-25.8789 57.4707-25.8789ZM57.4219-10.5469C60.8398-10.5469 63.5254-12.8418 63.5254-16.1621C63.5254-19.4824 60.8887-21.7773 57.4219-21.7773C54.0039-21.7773 51.3184-19.4336 51.3184-16.1621C51.3184-12.8906 54.0527-10.5469 57.4219-10.5469Z"/>
  </g>
  <g id="Medium-M" transform="matrix(1 0 0 1 1688.47 1126)">
   <path d="M28.5156 10.4492L87.6465 10.4492C98.2422 10.4492 103.711 4.98047 103.711-5.46875L103.711-64.8926C103.711-75.3418 98.2422-80.8105 87.6465-80.8105L28.5156-80.8105C17.9688-80.8105 12.4512-75.3906 12.4512-64.8926L12.4512-5.46875C12.4512 4.98047 17.9688 10.4492 28.5156 10.4492ZM29.1504 0.732422C24.6582 0.732422 22.168-1.61133 22.168-6.34766L22.168-64.0137C22.168-68.75 24.6582-71.0938 29.1504-71.0938L87.0117-71.0938C91.4551-71.0938 93.9941-68.75 93.9941-64.0137L93.9941-6.34766C93.9941-1.61133 91.4551 0.732422 87.0117 0.732422ZM57.0312-25.5859C59.7168-25.5859 61.4746-27.0996 61.6211-29.1016C61.6211-29.2969 61.6211-29.541 61.6211-29.6875C61.7676-32.2266 63.5254-33.8867 66.6992-35.9375C71.5332-39.1113 74.6094-41.9434 74.6094-47.5586C74.6094-55.6641 67.2852-60.3516 58.5938-60.3516C50.2441-60.3516 44.5312-56.543 43.0176-51.9531C42.7246-51.123 42.5293-50.2441 42.5293-49.3652C42.5293-47.0215 44.3848-45.5566 46.6309-45.5566C49.4629-45.5566 50.1465-47.0215 51.6113-48.6816C53.2227-51.123 55.2734-52.5391 58.1543-52.5391C62.0117-52.5391 64.502-50.3418 64.502-47.0703C64.502-44.043 62.4512-42.4805 58.3496-39.5996C54.8828-37.207 52.3438-34.7168 52.3438-30.3223L52.3438-29.7852C52.3438-27.002 54.0039-25.5859 57.0312-25.5859ZM56.9824-10.5469C60.1074-10.5469 62.6953-12.8418 62.6953-15.9668C62.6953-19.043 60.1562-21.3379 56.9824-21.3379C53.7598-21.3379 51.2207-19.043 51.2207-15.9668C51.2207-12.8906 53.8086-10.5469 56.9824-10.5469Z"/>
  </g>
  <g id="Regular-M" transform="matrix(1 0 0 1 1392.45 1126)">
   <path d="M27.7832 9.76562L87.0117 9.76562C97.2656 9.76562 102.344 4.6875 102.344-5.37109L102.344-64.9902C102.344-75.0488 97.2656-80.127 87.0117-80.127L27.7832-80.127C17.5781-80.127 12.4512-75.0977 12.4512-64.9902L12.4512-5.37109C12.4512 4.73633 17.5781 9.76562 27.7832 9.76562ZM27.8809 1.9043C22.998 1.9043 20.3125-0.683594 20.3125-5.76172L20.3125-64.5996C20.3125-69.6777 22.998-72.2656 27.8809-72.2656L86.9141-72.2656C91.748-72.2656 94.4824-69.6777 94.4824-64.5996L94.4824-5.76172C94.4824-0.683594 91.748 1.9043 86.9141 1.9043ZM56.4453-25.1465C58.9355-25.1465 60.4004-26.709 60.4004-28.6133L60.4004-29.1992C60.4004-31.9336 62.0117-33.6914 65.3809-35.9375C70.1172-39.0625 73.4863-41.8945 73.4863-47.7539C73.4863-55.8594 66.2598-60.2539 57.959-60.2539C49.6094-60.2539 44.0918-56.25 42.7246-51.7578C42.4805-50.9766 42.334-50.1465 42.334-49.3652C42.334-47.168 44.043-45.9961 45.6543-45.9961C48.4375-45.9961 48.877-47.4609 50.4395-49.3164C52.0508-52.002 54.3945-53.6133 57.666-53.6133C62.1094-53.6133 64.9902-51.0742 64.9902-47.3633C64.9902-44.043 62.9395-42.4316 58.6914-39.4531C55.1758-37.0117 52.5391-34.4238 52.5391-29.6387L52.5391-29.0039C52.5391-26.4648 53.9551-25.1465 56.4453-25.1465ZM56.3477-10.5957C59.1797-10.5957 61.6211-12.8418 61.6211-15.6738C61.6211-18.5059 59.2285-20.752 56.3477-20.752C53.4668-20.752 51.0742-18.457 51.0742-15.6738C51.0742-12.8906 53.5156-10.5957 56.3477-10.5957Z"/>
  </g>
  <g id="Light-M" transform="matrix(1 0 0 1 1096.47 1126)">
   <path d="M26.8555 9.0332L86.4746 9.0332C95.9961 9.0332 100.879 4.15039 100.879-5.22461L100.879-65.0879C100.879-74.5117 95.9961-79.3945 86.4746-79.3945L26.8555-79.3945C17.334-79.3945 12.4512-74.5605 12.4512-65.0879L12.4512-5.22461C12.4512 4.19922 17.334 9.0332 26.8555 9.0332ZM26.9531 2.97852C21.4844 2.97852 18.5059 0.0976562 18.5059-5.56641L18.5059-64.7949C18.5059-70.4102 21.4844-73.3398 26.9531-73.3398L86.3281-73.3398C91.748-73.3398 94.8242-70.4102 94.8242-64.7949L94.8242-5.56641C94.8242 0.0976562 91.748 2.97852 86.3281 2.97852ZM55.7617-25.293C57.6172-25.293 58.7891-26.5137 58.7891-28.0762L58.7891-29.0527C58.7891-31.9336 60.3027-33.7402 63.8672-36.1328C68.75-39.4043 71.6309-42.2852 71.6309-47.6074C71.6309-54.9316 65.0879-59.2773 57.0801-59.2773C49.0234-59.2773 43.75-55.127 42.6758-50.3906C42.4805-49.6582 42.3828-48.9746 42.3828-48.1934C42.3828-46.4844 43.7012-45.5566 45.0195-45.5566C47.1191-45.5566 47.6074-46.6797 48.6816-48.1934C49.8535-51.6113 52.6367-54.1016 56.8359-54.1016C61.8652-54.1016 65.0879-51.3184 65.0879-47.3145C65.0879-43.9453 63.1836-42.1387 58.6914-39.0137C54.9805-36.4258 52.7344-33.8867 52.7344-29.3945L52.7344-28.3203C52.7344-26.3672 53.8574-25.293 55.7617-25.293ZM55.6641-11.377C58.1055-11.377 60.2051-13.3301 60.2051-15.7715C60.2051-18.2129 58.1543-20.166 55.6641-20.166C53.1738-20.166 51.123-18.2129 51.123-15.7715C51.123-13.3789 53.2227-11.377 55.6641-11.377Z"/>
  </g>
  <g id="Thin-M" transform="matrix(1 0 0 1 800.758 1126)">
   <path d="M25.6348 8.05664L85.7422 8.05664C94.3848 8.05664 98.877 3.4668 98.877-5.0293L98.877-65.2344C98.877-73.7305 94.3848-78.3691 85.7422-78.3691L25.6348-78.3691C16.9922-78.3691 12.4512-73.877 12.4512-65.2344L12.4512-5.0293C12.4512 3.56445 16.9922 8.05664 25.6348 8.05664ZM25.7324 4.44336C19.3848 4.44336 16.0645 1.12305 16.0645-5.22461L16.0645-65.0391C16.0645-71.4355 19.3848-74.7559 25.7324-74.7559L85.5957-74.7559C91.748-74.7559 95.2637-71.4355 95.2637-65.0391L95.2637-5.22461C95.2637 1.12305 91.748 4.44336 85.5957 4.44336ZM54.834-25.4883C55.957-25.4883 56.6406-26.2695 56.6406-27.3438L56.6406-28.8574C56.6406-31.9336 58.0078-33.7891 61.9141-36.4258C66.9922-39.8926 69.0918-42.7734 69.0918-47.4121C69.0918-53.6621 63.5254-58.0566 55.9082-58.0566C48.291-58.0566 43.3594-53.6133 42.627-48.584C42.5293-47.9492 42.4805-47.3633 42.4805-46.6797C42.4805-45.6055 43.2617-44.9707 44.1895-44.9707C45.4102-44.9707 45.8984-45.6543 46.2891-46.6797C46.9238-51.123 50.3418-54.7363 55.7129-54.7363C61.5234-54.7363 65.1855-51.5625 65.1855-47.2168C65.1855-43.8477 63.4766-41.748 58.7402-38.4766C54.7363-35.6445 52.9785-33.1055 52.9785-29.1016L52.9785-27.3926C52.9785-26.2207 53.7109-25.4883 54.834-25.4883ZM54.7852-12.4023C56.7383-12.4023 58.3496-14.0625 58.3496-15.918C58.3496-17.8711 56.7383-19.4824 54.7852-19.4824C52.7832-19.4824 51.2207-17.8711 51.2207-15.918C51.2207-14.0625 52.7832-12.4023 54.7852-12.4023Z"/>
  </g>
  <g id="Ultralight-M" transform="matrix(1 0 0 1 504.535 1126)">
   <path d="M25 7.56836L85.3516 7.56836C93.5059 7.56836 97.9004 3.125 97.9004-4.98047L97.9004-65.2832C97.9004-73.3887 93.5059-77.832 85.3516-77.832L25-77.832C16.7969-77.832 12.4512-73.4863 12.4512-65.2832L12.4512-4.98047C12.4512 3.22266 16.7969 7.56836 25 7.56836ZM25.0977 5.17578C18.3594 5.17578 14.8438 1.66016 14.8438-5.07812L14.8438-65.1855C14.8438-71.9727 18.3594-75.4395 25.0977-75.4395L85.2051-75.4395C91.748-75.4395 95.5078-71.9727 95.5078-65.1855L95.5078-5.07812C95.5078 1.66016 91.748 5.17578 85.2051 5.17578ZM54.3945-25.5859C55.0781-25.5859 55.5664-26.1719 55.5664-26.9531L55.5664-28.7598C55.5664-31.9336 56.8848-33.8379 60.8887-36.5723C66.0645-40.1367 67.8223-43.0176 67.8223-47.3633C67.8223-53.0273 62.6953-57.373 55.2734-57.373C47.9004-57.373 43.1641-52.832 42.627-47.6562C42.5781-47.0703 42.5293-46.5332 42.5293-45.8984C42.5293-45.1172 43.0664-44.6289 43.7988-44.6289C44.5312-44.6289 45.0684-45.1172 45.0684-45.8984C45.459-50.8789 49.1211-55.0293 55.1758-55.0293C61.377-55.0293 65.2344-51.709 65.2344-47.168C65.2344-43.7988 63.623-41.5527 58.7891-38.1836C54.5898-35.2051 53.125-32.7148 53.125-28.9551L53.125-26.9531C53.125-26.1719 53.6621-25.5859 54.3945-25.5859ZM54.2969-12.9395C56.0547-12.9395 57.373-14.4043 57.373-16.0156C57.373-17.6758 56.0547-19.0918 54.2969-19.0918C52.5879-19.0918 51.2207-17.6758 51.2207-16.0156C51.2207-14.4043 52.5879-12.9395 54.2969-12.9395Z"/>
  </g>
  <g id="Black-S" transform="matrix(1 0 0 1 2885.5 696)">
   <path d="M25 2.92969L70.8008 2.92969C80.3711 2.92969 86.0352-2.73438 86.0352-12.3047L86.0352-58.1055C86.0352-67.6758 80.3711-73.3398 70.8008-73.3398L25-73.3398C15.4297-73.3398 9.76562-67.6758 9.76562-58.1055L9.76562-12.3047C9.76562-2.73438 15.4297 2.92969 25 2.92969ZM27.2461-11.2305C25-11.2305 23.9258-12.1094 23.9258-14.5508L23.9258-55.8594C23.9258-58.3008 25-59.1797 27.2461-59.1797L68.5547-59.1797C70.8008-59.1797 71.875-58.3008 71.875-55.8594L71.875-14.5508C71.875-12.1094 70.8008-11.2305 68.5547-11.2305ZM46.7285-29.0527C49.6582-29.0527 51.9043-30.3223 52.4902-32.1289C52.5391-32.2754 52.5879-32.4707 52.6367-32.5684C53.2715-33.7891 55.127-34.9121 56.7383-35.8887C60.8887-38.4277 62.2559-40.4785 62.2559-44.2383C62.2559-50.5859 56.2012-55.2734 47.998-55.2734C41.5527-55.2734 36.5234-52.8809 34.668-48.9746C34.2773-48.1445 34.082-47.3633 34.082-46.4355C34.082-43.9941 35.9375-41.748 39.8926-41.748C42.4316-41.748 43.7012-42.8711 44.5312-43.6035C45.7031-44.6289 46.3379-45.0195 47.2168-45.0195C48.1934-45.0195 48.8281-44.4336 48.8281-43.457C48.8281-42.2363 47.2656-41.0645 44.5312-39.209C41.8945-37.4023 40.2832-35.7422 40.2832-33.6914L40.2832-33.5938C40.2832-30.6152 42.5781-29.0527 46.7285-29.0527ZM46.7773-15.8203C50.3906-15.8203 52.9297-17.7246 52.9297-21.0938C52.9297-24.4141 50.3906-26.3672 46.7773-26.3672C43.1641-26.3672 40.5273-24.4629 40.5273-21.0938C40.5273-17.7246 43.1641-15.8203 46.7773-15.8203Z"/>
  </g>
  <g id="Heavy-S" transform="matrix(1 0 0 1 2589.4 696)">
   <path d="M24.3652 2.34375L70.2637 2.34375C79.541 2.34375 84.8145-2.97852 84.8145-12.207L84.8145-58.2031C84.8145-67.4316 79.541-72.7539 70.2637-72.7539L24.3652-72.7539C15.0879-72.7539 9.76562-67.4316 9.76562-58.2031L9.76562-12.207C9.76562-2.97852 15.0879 2.34375 24.3652 2.34375ZM26.0742-10.1562C23.5352-10.1562 22.2656-11.2793 22.2656-14.0137L22.2656-56.3965C22.2656-59.1309 23.5352-60.2539 26.0742-60.2539L68.5059-60.2539C71.0449-60.2539 72.3633-59.1309 72.3633-56.3965L72.3633-14.0137C72.3633-11.2793 71.0449-10.1562 68.5059-10.1562ZM46.2402-28.6133C48.9746-28.6133 51.0254-29.9316 51.4648-31.6895C51.4648-31.8359 51.5137-32.0312 51.5625-32.0801C52.0508-33.5449 53.7598-34.7168 55.6152-35.8398C59.6191-38.3301 61.377-40.4297 61.377-44.4336C61.377-50.8789 55.3223-55.2734 47.5098-55.2734C40.9668-55.2734 36.084-52.7344 34.375-48.9258C34.0332-48.1445 33.8379-47.4121 33.8379-46.5332C33.8379-44.1895 35.6445-42.2363 39.0137-42.2363C41.5039-42.2363 42.5781-43.4082 43.5547-44.3359C44.7754-45.5566 45.6543-46.0449 46.8262-46.0449C48.3398-46.0449 49.3164-45.166 49.3164-43.75C49.3164-42.2363 47.7051-41.0645 44.873-39.1113C42.2363-37.3047 40.4785-35.5469 40.4785-33.0566L40.4785-32.9102C40.4785-30.0781 42.5293-28.6133 46.2402-28.6133ZM46.2402-15.7715C49.5605-15.7715 52.002-17.6758 52.002-20.8008C52.002-23.9258 49.5605-25.8301 46.2402-25.8301C42.9199-25.8301 40.3809-23.9258 40.3809-20.8008C40.3809-17.6758 42.9199-15.7715 46.2402-15.7715Z"/>
  </g>
  <g id="Bold-S" transform="matrix(1 0 0 1 2293.35 696)">
   <path d="M23.6328 1.66016L69.6289 1.66016C78.6133 1.66016 83.4961-3.22266 83.4961-12.1094L83.4961-58.3008C83.4961-67.1875 78.6133-72.0703 69.6289-72.0703L23.6328-72.0703C14.6973-72.0703 9.76562-67.1875 9.76562-58.3008L9.76562-12.1094C9.76562-3.22266 14.6973 1.66016 23.6328 1.66016ZM24.8047-8.93555C21.9238-8.93555 20.3613-10.3516 20.3613-13.4277L20.3613-56.9824C20.3613-60.0586 21.9238-61.4746 24.8047-61.4746L68.457-61.4746C71.3379-61.4746 72.9004-60.0586 72.9004-56.9824L72.9004-13.4277C72.9004-10.3516 71.3379-8.93555 68.457-8.93555ZM45.6543-28.1738C48.1934-28.1738 50-29.4922 50.293-31.25C50.293-31.3477 50.3418-31.4941 50.3418-31.5918C50.6836-33.252 52.2461-34.4727 54.3457-35.791C58.252-38.2324 60.4004-40.3809 60.4004-44.6777C60.4004-51.2207 54.3457-55.2734 46.9238-55.2734C40.332-55.2734 35.5957-52.5879 34.082-48.9258C33.7891-48.1445 33.5938-47.4609 33.5938-46.6309C33.5938-44.4336 35.3027-42.8223 37.9883-42.8223C40.4785-42.8223 41.3086-44.043 42.4805-45.2148C43.7988-46.582 44.9219-47.2168 46.3867-47.2168C48.4863-47.2168 49.8535-45.9961 49.8535-44.0918C49.8535-42.1875 48.2422-41.0645 45.2637-38.9648C42.627-37.1582 40.6738-35.3027 40.6738-32.3242L40.6738-32.1289C40.6738-29.4922 42.4316-28.1738 45.6543-28.1738ZM45.6055-15.6738C48.6328-15.6738 50.9277-17.5781 50.9277-20.459C50.9277-23.3398 48.6328-25.2441 45.6055-25.2441C42.627-25.2441 40.2832-23.3398 40.2832-20.459C40.2832-17.5781 42.627-15.6738 45.6055-15.6738Z"/>
  </g>
  <g id="Semibold-S" transform="matrix(1 0 0 1 1997.1 696)">
   <path d="M23.0957 1.17188L69.1895 1.17188C77.9297 1.17188 82.5684-3.36914 82.5684-12.0117L82.5684-58.3984C82.5684-67.041 77.9297-71.582 69.1895-71.582L23.0957-71.582C14.4043-71.582 9.76562-67.041 9.76562-58.3984L9.76562-12.0117C9.76562-3.36914 14.4043 1.17188 23.0957 1.17188ZM23.877-8.10547C20.752-8.10547 19.0918-9.7168 19.0918-12.9883L19.0918-57.4219C19.0918-60.6934 20.752-62.3047 23.877-62.3047L68.4082-62.3047C71.5332-62.3047 73.2422-60.6934 73.2422-57.4219L73.2422-12.9883C73.2422-9.7168 71.5332-8.10547 68.4082-8.10547ZM45.2637-27.832C47.7051-27.832 49.3164-29.1504 49.5117-30.9082C49.5117-31.0059 49.5117-31.1523 49.5605-31.2012C49.7559-33.0078 51.2207-34.2773 53.4668-35.7422C57.2754-38.1836 59.668-40.332 59.668-44.8242C59.668-51.4648 53.6621-55.2734 46.5332-55.2734C39.8926-55.2734 35.2539-52.4414 33.8867-48.877C33.5938-48.1934 33.4473-47.4609 33.4473-46.7285C33.4473-44.6289 35.0586-43.2129 37.3047-43.2129C39.7949-43.2129 40.4297-44.4336 41.6992-45.8008C43.0664-47.2656 44.3848-47.998 46.0938-47.998C48.584-47.998 50.2441-46.5332 50.2441-44.3359C50.2441-42.1875 48.584-41.0156 45.5078-38.916C42.8711-37.0605 40.8203-35.1562 40.8203-31.8359L40.8203-31.6406C40.8203-29.1016 42.3828-27.832 45.2637-27.832ZM45.2148-15.625C47.998-15.625 50.1953-17.5293 50.1953-20.2637C50.1953-22.9492 47.998-24.8535 45.2148-24.8535C42.3828-24.8535 40.1855-22.9492 40.1855-20.2637C40.1855-17.5293 42.4316-15.625 45.2148-15.625Z"/>
  </g>
  <g id="Medium-S" transform="matrix(1 0 0 1 1700.75 696)">
   <path d="M22.7051 0.830078L68.8965 0.830078C77.4414 0.830078 81.8359-3.51562 81.8359-11.9629L81.8359-58.4473C81.8359-66.8945 77.4414-71.2402 68.8965-71.2402L22.7051-71.2402C14.209-71.2402 9.76562-66.8945 9.76562-58.4473L9.76562-11.9629C9.76562-3.51562 14.209 0.830078 22.7051 0.830078ZM23.1934-7.4707C19.9219-7.4707 18.0664-9.22852 18.0664-12.6953L18.0664-57.7148C18.0664-61.1816 19.9219-62.9395 23.1934-62.9395L68.4082-62.9395C71.6797-62.9395 73.5352-61.1816 73.5352-57.7148L73.5352-12.6953C73.5352-9.22852 71.6797-7.4707 68.4082-7.4707ZM44.9707-27.5879C47.3145-27.5879 48.7793-28.9551 48.877-30.6641C48.877-30.7617 48.877-30.8594 48.9258-30.957C49.0234-32.8613 50.4395-34.1797 52.832-35.6934C56.543-38.1348 59.1797-40.332 59.1797-44.9219C59.1797-51.6113 53.1738-55.2734 46.2402-55.2734C39.5508-55.2734 35.0098-52.3926 33.6914-48.877C33.4473-48.1934 33.3008-47.5098 33.3008-46.7773C33.3008-44.7266 34.9121-43.5059 36.7676-43.5059C39.2578-43.5059 39.7949-44.7754 41.1621-46.2402C42.5293-47.8027 43.9941-48.584 45.8496-48.584C48.6816-48.584 50.5371-46.9727 50.5371-44.5312C50.5371-42.1875 48.877-41.0156 45.7031-38.8184C43.0664-37.0117 40.9668-35.0098 40.9668-31.4453L40.9668-31.2012C40.9668-28.8086 42.3828-27.5879 44.9707-27.5879ZM44.873-15.5762C47.5098-15.5762 49.6582-17.4805 49.6582-20.0684C49.6582-22.6562 47.5098-24.5117 44.873-24.5117C42.2363-24.5117 40.0879-22.6074 40.0879-20.0684C40.0879-17.5293 42.2852-15.5762 44.873-15.5762Z"/>
  </g>
  <g id="Regular-S" transform="matrix(1 0 0 1 1404.51 696)">
   <path d="M22.2168 0.390625L68.457 0.390625C76.8066 0.390625 80.9082-3.71094 80.9082-11.9141L80.9082-58.4961C80.9082-66.6992 76.8066-70.8008 68.457-70.8008L22.2168-70.8008C13.916-70.8008 9.76562-66.6992 9.76562-58.4961L9.76562-11.9141C9.76562-3.71094 13.916 0.390625 22.2168 0.390625ZM22.3145-6.68945C18.7988-6.68945 16.7969-8.54492 16.7969-12.2559L16.7969-58.1543C16.7969-61.8164 18.7988-63.7207 22.3145-63.7207L68.3594-63.7207C71.875-63.7207 73.877-61.8164 73.877-58.1543L73.877-12.2559C73.877-8.54492 71.875-6.68945 68.3594-6.68945ZM44.5801-27.2461C46.7773-27.2461 48.0957-28.6133 48.0957-30.3223L48.0957-30.6152C48.0957-32.666 49.4141-33.9844 51.9531-35.6934C55.6152-38.0371 58.4961-40.2832 58.4961-45.1172C58.4961-51.8555 52.4902-55.2734 45.8496-55.2734C39.1113-55.2734 34.668-52.2461 33.4961-48.877C33.252-48.1934 33.1055-47.5098 33.1055-46.8262C33.1055-44.9219 34.668-43.8965 36.084-43.8965C38.5742-43.8965 38.916-45.2148 40.3809-46.7773C41.8457-48.5352 43.457-49.4141 45.5566-49.4141C48.7793-49.4141 50.8789-47.5586 50.8789-44.7754C50.8789-42.1875 49.2188-41.0156 45.9473-38.7695C43.3105-36.9141 41.1133-34.8633 41.1133-30.957L41.1133-30.7129C41.1133-28.418 42.334-27.2461 44.5801-27.2461ZM44.4824-15.5273C46.875-15.5273 48.9746-17.4316 48.9746-19.8242C48.9746-22.2656 46.9238-24.1211 44.4824-24.1211C42.041-24.1211 39.9902-22.2168 39.9902-19.8242C39.9902-17.4805 42.0898-15.5273 44.4824-15.5273Z"/>
  </g>
  <g id="Light-S" transform="matrix(1 0 0 1 1108.46 696)">
   <path d="M21.3867-0.292969L67.9688-0.292969C75.7324-0.292969 79.5898-4.15039 79.5898-11.7676L79.5898-58.5938C79.5898-66.2109 75.7324-70.1172 67.9688-70.1172L21.3867-70.1172C13.6719-70.1172 9.76562-66.2598 9.76562-58.5938L9.76562-11.7676C9.76562-4.15039 13.6719-0.292969 21.3867-0.292969ZM21.4844-5.71289C17.4316-5.71289 15.1855-7.86133 15.1855-12.0605L15.1855-58.3008C15.1855-62.5 17.4316-64.6973 21.4844-64.6973L67.8711-64.6973C71.875-64.6973 74.1699-62.5 74.1699-58.3008L74.1699-12.0605C74.1699-7.86133 71.875-5.71289 67.8711-5.71289ZM43.9453-27.3926C45.6543-27.3926 46.6797-28.4668 46.6797-29.834L46.6797-30.4688C46.6797-32.666 47.9004-34.0332 50.6348-35.8887C54.3945-38.3789 56.8359-40.625 56.8359-44.9707C56.8359-51.0254 51.4648-54.4434 45.0684-54.4434C38.623-54.4434 34.4238-51.2695 33.4473-47.6562C33.3008-47.0215 33.1543-46.4355 33.1543-45.8496C33.1543-44.3359 34.375-43.457 35.5469-43.457C37.4023-43.457 37.793-44.4824 38.8184-45.8008C39.8926-48.1934 41.9434-49.8047 44.8242-49.8047C48.584-49.8047 50.9766-47.7539 50.9766-44.7266C50.9766-42.0898 49.4141-40.7715 45.9961-38.3789C43.1641-36.377 41.2598-34.375 41.2598-30.7617L41.2598-30.0781C41.2598-28.3203 42.2363-27.3926 43.9453-27.3926ZM43.8965-16.2598C45.9473-16.2598 47.7051-17.8711 47.7051-19.9219C47.7051-22.0215 45.9473-23.6328 43.8965-23.6328C41.7969-23.6328 40.0391-21.9727 40.0391-19.9219C40.0391-17.9199 41.7969-16.2598 43.8965-16.2598Z"/>
  </g>
  <g id="Thin-S" transform="matrix(1 0 0 1 812.599 696)">
   <path d="M20.3125-1.12305L67.334-1.12305C74.2676-1.12305 77.8809-4.78516 77.8809-11.6211L77.8809-58.6914C77.8809-65.5762 74.2676-69.2383 67.334-69.2383L20.3125-69.2383C13.3789-69.2383 9.76562-65.625 9.76562-58.6914L9.76562-11.6211C9.76562-4.6875 13.3789-1.12305 20.3125-1.12305ZM20.4102-4.44336C15.625-4.44336 13.0859-6.93359 13.0859-11.8164L13.0859-58.5449C13.0859-63.3789 15.625-65.918 20.4102-65.918L67.2363-65.918C71.875-65.918 74.5605-63.3789 74.5605-58.5449L74.5605-11.8164C74.5605-6.93359 71.875-4.44336 67.2363-4.44336ZM43.1641-27.5879C44.1406-27.5879 44.7754-28.2715 44.7754-29.1992L44.7754-30.2734C44.7754-32.666 45.8984-34.082 48.877-36.1328C52.832-38.7695 54.6387-41.0156 54.6387-44.8242C54.6387-49.9023 50.0488-53.3203 44.043-53.3203C37.9883-53.3203 34.082-49.9023 33.4473-46.0449C33.3008-45.5566 33.252-45.0195 33.252-44.4824C33.252-43.5059 33.9844-42.9688 34.8145-42.9688C35.9375-42.9688 36.2793-43.6035 36.7188-44.4824C37.3047-47.8027 39.8926-50.3906 43.8965-50.3906C48.291-50.3906 51.0742-47.998 51.0742-44.6289C51.0742-41.9922 49.6582-40.4297 45.9961-37.8906C42.9199-35.6934 41.4551-33.7402 41.4551-30.5176L41.4551-29.2969C41.4551-28.2227 42.1387-27.5879 43.1641-27.5879ZM43.0664-17.1387C44.7266-17.1387 46.0449-18.5059 46.0449-20.0684C46.0449-21.6797 44.7266-22.998 43.0664-22.998C41.4551-22.998 40.0879-21.6797 40.0879-20.0684C40.0879-18.5059 41.4551-17.1387 43.0664-17.1387Z"/>
  </g>
  <g id="Ultralight-S" transform="matrix(1 0 0 1 516.352 696)">
   <path d="M19.7754-1.5625L66.9922-1.5625C73.5352-1.5625 76.9531-5.12695 76.9531-11.5234L76.9531-58.7891C76.9531-65.2344 73.5352-68.75 66.9922-68.75L19.7754-68.75C13.2324-68.75 9.76562-65.2832 9.76562-58.7891L9.76562-11.5234C9.76562-5.0293 13.2324-1.5625 19.7754-1.5625ZM19.873-3.75977C14.6484-3.75977 11.9629-6.44531 11.9629-11.6699L11.9629-58.6426C11.9629-63.8672 14.6484-66.5527 19.873-66.5527L66.8945-66.5527C71.875-66.5527 74.7559-63.8672 74.7559-58.6426L74.7559-11.6699C74.7559-6.44531 71.875-3.75977 66.8945-3.75977ZM42.7246-27.6855C43.4082-27.6855 43.8477-28.1738 43.8477-28.8574L43.8477-30.1758C43.8477-32.666 44.873-34.1309 47.9492-36.2305C52.002-39.0137 53.4668-41.2598 53.4668-44.7266C53.4668-49.3652 49.3164-52.7832 43.5059-52.7832C37.6465-52.7832 33.8867-49.2188 33.3984-45.2148C33.3496-44.7754 33.3008-44.2871 33.3008-43.7988C33.3008-43.1152 33.7891-42.6758 34.4238-42.6758C35.1562-42.6758 35.5469-43.1152 35.6445-43.7988C35.9863-47.5586 38.8184-50.6836 43.3594-50.6836C48.1445-50.6836 51.123-48.0957 51.123-44.5801C51.123-41.9434 49.8047-40.2344 46.0449-37.5977C42.8223-35.3516 41.5527-33.3984 41.5527-30.3711L41.5527-28.8574C41.5527-28.125 42.041-27.6855 42.7246-27.6855ZM42.6758-17.627C44.0918-17.627 45.2148-18.8477 45.2148-20.166C45.2148-21.5332 44.0918-22.7051 42.6758-22.7051C41.2598-22.7051 40.1367-21.5332 40.1367-20.166C40.1367-18.8477 41.2598-17.627 42.6758-17.627Z"/>
  </g>
 </g>
</svg>
