<svg width="136" height="136" viewBox="0 0 136 136" fill="none" xmlns="http://www.w3.org/2000/svg">
<path fill-rule="evenodd" clip-rule="evenodd" d="M62.9167 17.1666C88.1708 17.1666 108.667 37.6626 108.667 62.9166C108.667 88.1706 88.1708 108.667 62.9167 108.667C37.6627 108.667 17.1667 88.1706 17.1667 62.9166C17.1667 37.6626 37.6627 17.1666 62.9167 17.1666ZM62.9167 98.5C82.574 98.5 98.5001 82.5739 98.5001 62.9166C98.5001 43.2543 82.574 27.3333 62.9167 27.3333C43.2544 27.3333 27.3334 43.2543 27.3334 62.9166C27.3334 82.5739 43.2544 98.5 62.9167 98.5ZM120.43 113.237L106.049 98.8609L98.861 106.049L113.237 120.429L120.43 113.237Z" fill="#B4B7BB"/>
</svg>
