<svg width="24" height="24" viewBox="0 0 24 24" fill="none" xmlns="http://www.w3.org/2000/svg">
<path d="M5.8125 21.085C6.21094 21.085 6.72656 20.9678 7.35938 20.7334C7.99805 20.499 8.66895 20.1914 9.37207 19.8105C10.0752 19.4355 10.7344 19.0254 11.3496 18.5801C12.5918 18.6035 13.7607 18.4863 14.8564 18.2285C15.9521 17.9707 16.9453 17.5986 17.8359 17.1123C18.7324 16.6201 19.5029 16.0342 20.1475 15.3545C20.7979 14.6689 21.2988 13.9102 21.6504 13.0781C22.002 12.2461 22.1777 11.3584 22.1777 10.415C22.1777 9.75879 22.084 9.13184 21.8965 8.53418C21.6562 8.72754 21.3955 8.8916 21.1143 9.02637C20.833 9.15527 20.543 9.24609 20.2441 9.29883C20.3555 9.66797 20.4111 10.04 20.4111 10.415C20.4111 11.2998 20.1943 12.1318 19.7607 12.9111C19.3271 13.6846 18.7266 14.3672 17.959 14.959C17.1914 15.5449 16.2979 16.0049 15.2783 16.3389C14.2646 16.6729 13.1719 16.8398 12 16.8398C11.918 16.8398 11.8154 16.8398 11.6924 16.8398C11.5752 16.834 11.4404 16.8281 11.2881 16.8223C11.1006 16.8223 10.9277 16.8545 10.7695 16.9189C10.6113 16.9775 10.4473 17.0742 10.2773 17.209C9.92578 17.4668 9.5332 17.7363 9.09961 18.0176C8.67188 18.3047 8.25586 18.5625 7.85156 18.791C7.44727 19.0254 7.11621 19.1953 6.8584 19.3008C6.80566 19.3242 6.77051 19.3213 6.75293 19.292C6.73535 19.2686 6.74707 19.2334 6.78809 19.1865C7.01074 18.9111 7.26562 18.5771 7.55273 18.1846C7.83984 17.7979 8.06543 17.4551 8.22949 17.1562C8.3584 16.9102 8.39355 16.6875 8.33496 16.4883C8.28223 16.2832 8.11523 16.1133 7.83398 15.9785C6.9375 15.5566 6.17285 15.0615 5.54004 14.4932C4.90723 13.9189 4.42383 13.2891 4.08984 12.6035C3.76172 11.9121 3.59766 11.1826 3.59766 10.415C3.59766 9.53027 3.81152 8.70117 4.23926 7.92773C4.67285 7.1543 5.27344 6.47168 6.04102 5.87988C6.80859 5.28809 7.70215 4.8252 8.72168 4.49121C9.74121 4.15723 10.834 3.99023 12 3.99023C12.5391 3.99023 13.0635 4.03125 13.5732 4.11328C14.0889 4.18945 14.5811 4.30371 15.0498 4.45605C15.1143 3.83496 15.3223 3.27832 15.6738 2.78613C15.1113 2.60449 14.5195 2.4668 13.8984 2.37305C13.2832 2.2793 12.6504 2.23242 12 2.23242C10.5879 2.23242 9.26367 2.44336 8.02734 2.86523C6.79688 3.28711 5.71582 3.87305 4.78418 4.62305C3.8584 5.36719 3.13184 6.2373 2.60449 7.2334C2.08301 8.22363 1.82227 9.28418 1.82227 10.415C1.82227 11.376 2.00977 12.29 2.38477 13.1572C2.75977 14.0244 3.28711 14.8066 3.9668 15.5039C4.65234 16.2012 5.45508 16.7725 6.375 17.2178C6.24609 17.458 6.09375 17.7188 5.91797 18C5.74805 18.2754 5.5752 18.5391 5.39941 18.791C5.22363 19.0488 5.07129 19.2598 4.94238 19.4238C4.75488 19.6699 4.66699 19.9219 4.67871 20.1797C4.69629 20.4375 4.80176 20.6514 4.99512 20.8213C5.18848 20.9971 5.46094 21.085 5.8125 21.085ZM19.1543 8.30566C19.6992 8.30566 20.2002 8.16797 20.6572 7.89258C21.1201 7.61719 21.4893 7.24805 21.7646 6.78516C22.04 6.32227 22.1777 5.81543 22.1777 5.26465C22.1777 4.70801 22.04 4.20117 21.7646 3.74414C21.4893 3.28125 21.1201 2.91211 20.6572 2.63672C20.2002 2.36133 19.6992 2.22363 19.1543 2.22363C18.5918 2.22363 18.082 2.36133 17.625 2.63672C17.168 2.91211 16.8018 3.28125 16.5264 3.74414C16.251 4.20117 16.1133 4.70801 16.1133 5.26465C16.1133 5.81543 16.251 6.32227 16.5264 6.78516C16.8018 7.24805 17.168 7.61719 17.625 7.89258C18.082 8.16797 18.5918 8.30566 19.1543 8.30566Z" fill="black"/>
</svg>
