<?xml version="1.0" encoding="UTF-8"?>
<!--Generator: Apple Native CoreSVG 149-->
<!DOCTYPE svg
PUBLIC "-//W3C//DTD SVG 1.1//EN"
       "http://www.w3.org/Graphics/SVG/1.1/DTD/svg11.dtd">
<svg version="1.1" xmlns="http://www.w3.org/2000/svg" xmlns:xlink="http://www.w3.org/1999/xlink" width="3300" height="2200">
 <!--glyph: "uni100361.medium", point size: 100.000000, font version: "Version 16.0d18e1", template writer version: "8"-->
 <g id="Notes">
  <rect height="2200" id="artboard" style="fill:white;opacity:1" width="3300" x="0" y="0"/>
  <line id="" style="fill:none;stroke:black;opacity:1;stroke-width:0.5;" x1="263" x2="3036" y1="292" y2="292"/>
  <text style="stroke:none;fill:black;font-family:-apple-system,&quot;SF Pro Display&quot;,&quot;SF Pro Text&quot;,Helvetica,sans-serif;font-weight:bold;" transform="matrix(1 0 0 1 263 322)">Weight/Scale Variations</text>
  <text style="stroke:none;fill:black;font-family:-apple-system,&quot;SF Pro Display&quot;,&quot;SF Pro Text&quot;,Helvetica,sans-serif;text-anchor:middle;" transform="matrix(1 0 0 1 559.711 322)">Ultralight</text>
  <text style="stroke:none;fill:black;font-family:-apple-system,&quot;SF Pro Display&quot;,&quot;SF Pro Text&quot;,Helvetica,sans-serif;text-anchor:middle;" transform="matrix(1 0 0 1 856.422 322)">Thin</text>
  <text style="stroke:none;fill:black;font-family:-apple-system,&quot;SF Pro Display&quot;,&quot;SF Pro Text&quot;,Helvetica,sans-serif;text-anchor:middle;" transform="matrix(1 0 0 1 1153.13 322)">Light</text>
  <text style="stroke:none;fill:black;font-family:-apple-system,&quot;SF Pro Display&quot;,&quot;SF Pro Text&quot;,Helvetica,sans-serif;text-anchor:middle;" transform="matrix(1 0 0 1 1449.84 322)">Regular</text>
  <text style="stroke:none;fill:black;font-family:-apple-system,&quot;SF Pro Display&quot;,&quot;SF Pro Text&quot;,Helvetica,sans-serif;text-anchor:middle;" transform="matrix(1 0 0 1 1746.56 322)">Medium</text>
  <text style="stroke:none;fill:black;font-family:-apple-system,&quot;SF Pro Display&quot;,&quot;SF Pro Text&quot;,Helvetica,sans-serif;text-anchor:middle;" transform="matrix(1 0 0 1 2043.27 322)">Semibold</text>
  <text style="stroke:none;fill:black;font-family:-apple-system,&quot;SF Pro Display&quot;,&quot;SF Pro Text&quot;,Helvetica,sans-serif;text-anchor:middle;" transform="matrix(1 0 0 1 2339.98 322)">Bold</text>
  <text style="stroke:none;fill:black;font-family:-apple-system,&quot;SF Pro Display&quot;,&quot;SF Pro Text&quot;,Helvetica,sans-serif;text-anchor:middle;" transform="matrix(1 0 0 1 2636.69 322)">Heavy</text>
  <text style="stroke:none;fill:black;font-family:-apple-system,&quot;SF Pro Display&quot;,&quot;SF Pro Text&quot;,Helvetica,sans-serif;text-anchor:middle;" transform="matrix(1 0 0 1 2933.4 322)">Black</text>
  <line id="" style="fill:none;stroke:black;opacity:1;stroke-width:0.5;" x1="263" x2="3036" y1="1903" y2="1903"/>
  <g id="" transform="matrix(1 0 0 1 263 1933)">
   <path d="M9.24805 0.830078C13.5547 0.830078 17.1387-2.74414 17.1387-7.05078C17.1387-11.3574 13.5449-14.9316 9.23828-14.9316C4.94141-14.9316 1.36719-11.3574 1.36719-7.05078C1.36719-2.74414 4.95117 0.830078 9.24805 0.830078ZM9.24805-0.654297C5.70312-0.654297 2.87109-3.49609 2.87109-7.05078C2.87109-10.6055 5.69336-13.4473 9.23828-13.4473C12.793-13.4473 15.6348-10.6055 15.6445-7.05078C15.6543-3.49609 12.8027-0.654297 9.24805-0.654297ZM6.39648-6.31836L8.50586-6.31836L8.50586-4.19922C8.50586-3.75977 8.79883-3.45703 9.22852-3.45703C9.67773-3.45703 9.9707-3.75977 9.9707-4.19922L9.9707-6.31836L12.0996-6.31836C12.5391-6.31836 12.8418-6.61133 12.8418-7.04102C12.8418-7.48047 12.5391-7.7832 12.0996-7.7832L9.9707-7.7832L9.9707-9.89258C9.9707-10.3418 9.67773-10.6445 9.22852-10.6445C8.79883-10.6445 8.50586-10.3418 8.50586-9.89258L8.50586-7.7832L6.39648-7.7832C5.94727-7.7832 5.64453-7.48047 5.64453-7.04102C5.64453-6.61133 5.94727-6.31836 6.39648-6.31836Z"/>
  </g>
  <g id="" transform="matrix(1 0 0 1 281.506 1933)">
   <path d="M11.709 2.91016C17.1582 2.91016 21.6699-1.61133 21.6699-7.05078C21.6699-12.5 17.1484-17.0117 11.6992-17.0117C6.25977-17.0117 1.74805-12.5 1.74805-7.05078C1.74805-1.61133 6.26953 2.91016 11.709 2.91016ZM11.709 1.25C7.09961 1.25 3.41797-2.44141 3.41797-7.05078C3.41797-11.6602 7.08984-15.3516 11.6992-15.3516C16.3086-15.3516 20-11.6602 20.0098-7.05078C20.0195-2.44141 16.3184 1.25 11.709 1.25ZM7.98828-6.23047L10.8789-6.23047L10.8789-3.32031C10.8789-2.83203 11.2109-2.5 11.6895-2.5C12.1777-2.5 12.5195-2.83203 12.5195-3.32031L12.5195-6.23047L15.4297-6.23047C15.918-6.23047 16.25-6.5625 16.25-7.04102C16.25-7.5293 15.918-7.87109 15.4297-7.87109L12.5195-7.87109L12.5195-10.7617C12.5195-11.2695 12.1777-11.6016 11.6895-11.6016C11.2109-11.6016 10.8789-11.2598 10.8789-10.7617L10.8789-7.87109L7.98828-7.87109C7.48047-7.87109 7.14844-7.5293 7.14844-7.04102C7.14844-6.5625 7.49023-6.23047 7.98828-6.23047Z"/>
  </g>
  <g id="" transform="matrix(1 0 0 1 304.924 1933)">
   <path d="M14.9707 5.66406C21.9336 5.66406 27.6953-0.0976562 27.6953-7.05078C27.6953-14.0137 21.9238-19.7754 14.9609-19.7754C8.00781-19.7754 2.25586-14.0137 2.25586-7.05078C2.25586-0.0976562 8.01758 5.66406 14.9707 5.66406ZM14.9707 3.84766C8.93555 3.84766 4.08203-1.01562 4.08203-7.05078C4.08203-13.0957 8.92578-17.9492 14.9609-17.9492C21.0059-17.9492 25.8594-13.0957 25.8691-7.05078C25.8789-1.01562 21.0156 3.84766 14.9707 3.84766ZM10.0586-6.14258L14.0625-6.14258L14.0625-2.12891C14.0625-1.5918 14.4336-1.2207 14.9512-1.2207C15.4883-1.2207 15.8594-1.5918 15.8594-2.12891L15.8594-6.14258L19.8828-6.14258C20.4102-6.14258 20.791-6.51367 20.791-7.03125C20.791-7.56836 20.4199-7.94922 19.8828-7.94922L15.8594-7.94922L15.8594-11.9531C15.8594-12.5098 15.4883-12.8809 14.9512-12.8809C14.4336-12.8809 14.0625-12.5 14.0625-11.9531L14.0625-7.94922L10.0586-7.94922C9.50195-7.94922 9.13086-7.56836 9.13086-7.03125C9.13086-6.51367 9.51172-6.14258 10.0586-6.14258Z"/>
  </g>
  <text style="stroke:none;fill:black;font-family:-apple-system,&quot;SF Pro Display&quot;,&quot;SF Pro Text&quot;,Helvetica,sans-serif;font-weight:bold;" transform="matrix(1 0 0 1 263 1953)">Design Variations</text>
  <text style="stroke:none;fill:black;font-family:-apple-system,&quot;SF Pro Display&quot;,&quot;SF Pro Text&quot;,Helvetica,sans-serif;" transform="matrix(1 0 0 1 263 1971)">Symbols are supported in up to nine weights and three scales.</text>
  <text style="stroke:none;fill:black;font-family:-apple-system,&quot;SF Pro Display&quot;,&quot;SF Pro Text&quot;,Helvetica,sans-serif;" transform="matrix(1 0 0 1 263 1989)">For optimal layout with text and other symbols, vertically align</text>
  <text style="stroke:none;fill:black;font-family:-apple-system,&quot;SF Pro Display&quot;,&quot;SF Pro Text&quot;,Helvetica,sans-serif;" transform="matrix(1 0 0 1 263 2007)">symbols with the adjacent text.</text>
  <line id="" style="fill:none;stroke:#00AEEF;stroke-width:0.5;opacity:1.0;" x1="776" x2="776" y1="1919" y2="1933"/>
  <g id="" transform="matrix(1 0 0 1 776 1933)">
   <path d="M3.31055 0.126953C3.82812 0.126953 4.08203-0.0683594 4.26758-0.605469L5.52734-4.0625L11.2891-4.0625L12.5488-0.605469C12.7344-0.0683594 12.9883 0.126953 13.4961 0.126953C14.0137 0.126953 14.3457-0.185547 14.3457-0.673828C14.3457-0.839844 14.3164-0.986328 14.2383-1.20117L9.6582-13.3887C9.43359-13.9941 9.0332-14.2871 8.4082-14.2871C7.80273-14.2871 7.39258-13.9941 7.17773-13.3984L2.59766-1.19141C2.51953-0.976562 2.49023-0.830078 2.49023-0.664062C2.49023-0.175781 2.80273 0.126953 3.31055 0.126953ZM6.00586-5.53711L8.37891-12.1094L8.42773-12.1094L10.8008-5.53711Z"/>
  </g>
  <line id="" style="fill:none;stroke:#00AEEF;stroke-width:0.5;opacity:1.0;" x1="792.836" x2="792.836" y1="1919" y2="1933"/>
  <text style="stroke:none;fill:black;font-family:-apple-system,&quot;SF Pro Display&quot;,&quot;SF Pro Text&quot;,Helvetica,sans-serif;font-weight:bold;" transform="matrix(1 0 0 1 776 1953)">Margins</text>
  <text style="stroke:none;fill:black;font-family:-apple-system,&quot;SF Pro Display&quot;,&quot;SF Pro Text&quot;,Helvetica,sans-serif;" transform="matrix(1 0 0 1 776 1971)">Leading and trailing margins on the left and right side of each symbol</text>
  <text style="stroke:none;fill:black;font-family:-apple-system,&quot;SF Pro Display&quot;,&quot;SF Pro Text&quot;,Helvetica,sans-serif;" transform="matrix(1 0 0 1 776 1989)">can be adjusted by modifying the x-location of the margin guidelines.</text>
  <text style="stroke:none;fill:black;font-family:-apple-system,&quot;SF Pro Display&quot;,&quot;SF Pro Text&quot;,Helvetica,sans-serif;" transform="matrix(1 0 0 1 776 2007)">Modifications are automatically applied proportionally to all</text>
  <text style="stroke:none;fill:black;font-family:-apple-system,&quot;SF Pro Display&quot;,&quot;SF Pro Text&quot;,Helvetica,sans-serif;" transform="matrix(1 0 0 1 776 2025)">scales and weights.</text>
  <g id="" transform="matrix(1 0 0 1 1289 1933)">
   <path d="M2.8418 1.86523L4.54102 3.57422C5.40039 4.44336 6.38672 4.38477 7.31445 3.35938L17.4902-7.85156C17.7539-7.76367 18.0273-7.7832 18.3398-7.8418L19.4043-8.03711L20.0684-7.36328L20.0293-6.80664C19.9902-6.30859 20.1172-5.92773 20.6055-5.44922L21.3672-4.70703C21.8457-4.22852 22.4609-4.19922 22.9297-4.66797L25.8398-7.58789C26.3086-8.05664 26.2891-8.65234 25.8105-9.13086L25.0391-9.89258C24.5605-10.3711 24.1895-10.5273 23.7109-10.4883L23.1348-10.4395L22.4902-11.0742L22.7344-12.1973C22.8613-12.7637 22.7051-13.2031 22.1191-13.7891L19.9219-15.9766C16.582-19.2969 12.1484-19.2188 9.25781-16.3281C8.83789-15.918 8.80859-15.3418 9.04297-14.9512C9.27734-14.5898 9.73633-14.3555 10.3809-14.5215C11.8457-14.8633 13.3691-14.9219 14.7949-13.9844L14.209-12.5293C14.0137-12.0508 13.9844-11.6504 14.1113-11.2891L3.04688-0.898438C2.06055 0.0195312 1.98242 0.996094 2.8418 1.86523ZM10.752-15.957C13.1836-17.7344 16.4746-17.4316 18.7012-15.2051L21.1328-12.793C21.3672-12.5586 21.4062-12.373 21.3379-12.0312L21.0156-10.5469L22.5195-9.0625L23.5059-9.12109C23.7598-9.13086 23.8379-9.11133 24.0332-8.91602L24.6094-8.33984L22.168-5.89844L21.5918-6.47461C21.3965-6.66992 21.3672-6.74805 21.377-7.01172L21.4453-7.98828L19.9512-9.47266L18.4277-9.21875C18.1055-9.15039 17.959-9.17969 17.7148-9.41406L15.7129-11.416C15.459-11.6504 15.4297-11.8164 15.5859-12.1875L16.4648-14.2773C14.9023-15.7324 12.8711-16.3574 10.8398-15.7617C10.6836-15.7227 10.625-15.8496 10.752-15.957ZM5.27344 2.30469L4.10156 1.14258C3.63281 0.683594 3.74023 0.341797 4.14062-0.0195312L14.9512-10.1953L16.416-8.71094L6.42578 2.27539C6.07422 2.67578 5.74219 2.77344 5.27344 2.30469Z"/>
  </g>
  <text style="stroke:none;fill:black;font-family:-apple-system,&quot;SF Pro Display&quot;,&quot;SF Pro Text&quot;,Helvetica,sans-serif;font-weight:bold;" transform="matrix(1 0 0 1 1289 1953)">Exporting</text>
  <text style="stroke:none;fill:black;font-family:-apple-system,&quot;SF Pro Display&quot;,&quot;SF Pro Text&quot;,Helvetica,sans-serif;" transform="matrix(1 0 0 1 1289 1971)">Symbols should be outlined when exporting to ensure the</text>
  <text style="stroke:none;fill:black;font-family:-apple-system,&quot;SF Pro Display&quot;,&quot;SF Pro Text&quot;,Helvetica,sans-serif;" transform="matrix(1 0 0 1 1289 1989)">design is preserved when submitting to Xcode.</text>
  <text id="template-version" style="stroke:none;fill:black;font-family:-apple-system,&quot;SF Pro Display&quot;,&quot;SF Pro Text&quot;,Helvetica,sans-serif;text-anchor:end;" transform="matrix(1 0 0 1 3036 1933)">Template v.2.0</text>
  <text style="stroke:none;fill:black;font-family:-apple-system,&quot;SF Pro Display&quot;,&quot;SF Pro Text&quot;,Helvetica,sans-serif;text-anchor:end;" transform="matrix(1 0 0 1 3036 1951)">Requires Xcode 12 or greater</text>
  <text style="stroke:none;fill:black;font-family:-apple-system,&quot;SF Pro Display&quot;,&quot;SF Pro Text&quot;,Helvetica,sans-serif;text-anchor:end;" transform="matrix(1 0 0 1 3036 1969)">Generated from ellipsis.circle</text>
  <text style="stroke:none;fill:black;font-family:-apple-system,&quot;SF Pro Display&quot;,&quot;SF Pro Text&quot;,Helvetica,sans-serif;text-anchor:end;" transform="matrix(1 0 0 1 3036 1987)">Typeset at 100 points</text>
  <text style="stroke:none;fill:black;font-family:-apple-system,&quot;SF Pro Display&quot;,&quot;SF Pro Text&quot;,Helvetica,sans-serif;" transform="matrix(1 0 0 1 263 726)">Small</text>
  <text style="stroke:none;fill:black;font-family:-apple-system,&quot;SF Pro Display&quot;,&quot;SF Pro Text&quot;,Helvetica,sans-serif;" transform="matrix(1 0 0 1 263 1156)">Medium</text>
  <text style="stroke:none;fill:black;font-family:-apple-system,&quot;SF Pro Display&quot;,&quot;SF Pro Text&quot;,Helvetica,sans-serif;" transform="matrix(1 0 0 1 263 1586)">Large</text>
 </g>
 <g id="Guides">
  <g id="H-reference" style="fill:#27AAE1;stroke:none;" transform="matrix(1 0 0 1 339 696)">
   <path d="M0.976562 0L3.66211 0L12.9883-24.4629L45.752-24.4629L55.127 0L57.7637 0L30.6152-70.459L28.125-70.459ZM29.3457-67.1387L29.4434-67.1387L44.873-26.709L13.8672-26.709Z"/>
  </g>
  <line id="Baseline-S" style="fill:none;stroke:#27AAE1;opacity:1;stroke-width:0.5;" x1="263" x2="3036" y1="696" y2="696"/>
  <line id="Capline-S" style="fill:none;stroke:#27AAE1;opacity:1;stroke-width:0.5;" x1="263" x2="3036" y1="625.541" y2="625.541"/>
  <g id="H-reference" style="fill:#27AAE1;stroke:none;" transform="matrix(1 0 0 1 339 1126)">
   <path d="M0.976562 0L3.66211 0L12.9883-24.4629L45.752-24.4629L55.127 0L57.7637 0L30.6152-70.459L28.125-70.459ZM29.3457-67.1387L29.4434-67.1387L44.873-26.709L13.8672-26.709Z"/>
  </g>
  <line id="Baseline-M" style="fill:none;stroke:#27AAE1;opacity:1;stroke-width:0.5;" x1="263" x2="3036" y1="1126" y2="1126"/>
  <line id="Capline-M" style="fill:none;stroke:#27AAE1;opacity:1;stroke-width:0.5;" x1="263" x2="3036" y1="1055.54" y2="1055.54"/>
  <g id="H-reference" style="fill:#27AAE1;stroke:none;" transform="matrix(1 0 0 1 339 1556)">
   <path d="M0.976562 0L3.66211 0L12.9883-24.4629L45.752-24.4629L55.127 0L57.7637 0L30.6152-70.459L28.125-70.459ZM29.3457-67.1387L29.4434-67.1387L44.873-26.709L13.8672-26.709Z"/>
  </g>
  <line id="Baseline-L" style="fill:none;stroke:#27AAE1;opacity:1;stroke-width:0.5;" x1="263" x2="3036" y1="1556" y2="1556"/>
  <line id="Capline-L" style="fill:none;stroke:#27AAE1;opacity:1;stroke-width:0.5;" x1="263" x2="3036" y1="1485.54" y2="1485.54"/>
  <line id="left-margin" style="fill:none;stroke:#00AEEF;stroke-width:0.5;opacity:1.0;" x1="1391.3" x2="1391.3" y1="1030.79" y2="1150.12"/>
  <line id="right-margin" style="fill:none;stroke:#00AEEF;stroke-width:0.5;opacity:1.0;" x1="1508.39" x2="1508.39" y1="1030.79" y2="1150.12"/>
 </g>
 <g id="Symbols">
  <g id="Black-L" transform="matrix(1 0 0 1 2854.05 1556)">
   <path d="M79.3457 32.8613C116.748 32.8613 147.412 2.19727 147.412-35.2051C147.412-72.6074 116.748-103.271 79.2969-103.271C41.8945-103.271 11.2793-72.6074 11.2793-35.2051C11.2793 2.19727 41.9434 32.8613 79.3457 32.8613ZM79.3457 12.4023C52.9785 12.4023 31.7383-8.83789 31.7383-35.2051C31.7383-61.5723 52.9297-82.8125 79.2969-82.8125C105.664-82.8125 126.953-61.5723 126.953-35.2051C127.002-8.83789 105.713 12.4023 79.3457 12.4023ZM50.293-24.5117C56.1523-24.5117 60.9375-29.2969 60.9375-35.2051C60.9375-41.1133 56.1523-45.8984 50.293-45.8984C44.3359-45.8984 39.5996-41.1133 39.5996-35.2051C39.5996-29.2969 44.3359-24.5117 50.293-24.5117ZM79.1992-24.5117C85.1074-24.5117 89.8926-29.2969 89.8926-35.2051C89.8926-41.1133 85.1074-45.8984 79.1992-45.8984C73.291-45.8984 68.5059-41.1133 68.5059-35.2051C68.5059-29.2969 73.291-24.5117 79.1992-24.5117ZM108.105-24.5117C114.062-24.5117 118.799-29.2969 118.799-35.2051C118.799-41.1133 114.062-45.8984 108.105-45.8984C102.197-45.8984 97.4609-41.1133 97.4609-35.2051C97.4609-29.2969 102.197-24.5117 108.105-24.5117Z"/>
  </g>
  <g id="Heavy-L" transform="matrix(1 0 0 1 2558.39 1556)">
   <path d="M78.2715 31.7871C115.088 31.7871 145.312 1.5625 145.312-35.2051C145.312-72.0215 115.039-102.246 78.2715-102.246C41.4551-102.246 11.2793-72.0215 11.2793-35.2051C11.2793 1.5625 41.5039 31.7871 78.2715 31.7871ZM78.2715 14.0137C51.0254 14.0137 29.0527-7.95898 29.0527-35.2051C29.0527-62.5 50.9766-84.4727 78.2715-84.4727C105.518-84.4727 127.49-62.5 127.539-35.2051C127.539-7.95898 105.566 14.0137 78.2715 14.0137ZM49.1699-24.9512C54.834-24.9512 59.375-29.5898 59.375-35.2051C59.375-40.8691 54.7852-45.459 49.1699-45.459C43.5059-45.459 38.916-40.8691 38.916-35.2051C38.916-29.5898 43.5059-24.9512 49.1699-24.9512ZM78.1738-24.9512C83.7891-24.9512 88.4277-29.5898 88.4277-35.2051C88.4277-40.8691 83.7891-45.459 78.1738-45.459C72.5098-45.459 67.9199-40.8691 67.9199-35.2051C67.9199-29.5898 72.5098-24.9512 78.1738-24.9512ZM107.129-24.9512C112.842-24.9512 117.383-29.5898 117.383-35.2051C117.383-40.8691 112.842-45.459 107.129-45.459C101.465-45.459 96.9238-40.8691 96.9238-35.2051C96.9238-29.5898 101.465-24.9512 107.129-24.9512Z"/>
  </g>
  <g id="Bold-L" transform="matrix(1 0 0 1 2262.88 1556)">
   <path d="M77.0996 30.5664C113.232 30.5664 142.92 0.878906 142.92-35.2539C142.92-71.3379 113.184-101.074 77.0508-101.074C40.9668-101.074 11.2793-71.3379 11.2793-35.2539C11.2793 0.878906 41.0156 30.5664 77.0996 30.5664ZM77.0996 15.8203C48.8281 15.8203 26.0742-6.98242 26.0742-35.2539C26.0742-63.5254 48.7793-86.2793 77.0508-86.2793C105.371-86.2793 128.125-63.5254 128.174-35.2539C128.174-6.98242 105.371 15.8203 77.0996 15.8203ZM47.9492-25.4883C53.3203-25.4883 57.666-29.834 57.666-35.2539C57.666-40.625 53.2715-44.9707 47.9492-44.9707C42.5293-44.9707 38.1836-40.625 38.1836-35.2539C38.1836-29.834 42.5293-25.4883 47.9492-25.4883ZM77.002-25.4883C82.373-25.4883 86.7676-29.834 86.7676-35.2539C86.7676-40.625 82.373-44.9707 77.002-44.9707C71.6309-44.9707 67.2363-40.625 67.2363-35.2539C67.2363-29.834 71.6309-25.4883 77.002-25.4883ZM106.055-25.4883C111.426-25.4883 115.771-29.834 115.771-35.2539C115.771-40.625 111.426-44.9707 106.055-44.9707C100.684-44.9707 96.3379-40.625 96.3379-35.2539C96.3379-29.834 100.684-25.4883 106.055-25.4883Z"/>
  </g>
  <g id="Semibold-L" transform="matrix(1 0 0 1 1966.97 1556)">
   <path d="M76.2695 29.7363C111.914 29.7363 141.309 0.390625 141.309-35.2539C141.309-70.8984 111.865-100.244 76.2695-100.244C40.625-100.244 11.2793-70.8984 11.2793-35.2539C11.2793 0.390625 40.6738 29.7363 76.2695 29.7363ZM76.2695 17.041C47.3145 17.041 24.0234-6.25 24.0234-35.2539C24.0234-64.209 47.2656-87.5488 76.2695-87.5488C105.225-87.5488 128.564-64.209 128.613-35.2539C128.662-6.25 105.273 17.041 76.2695 17.041ZM47.1191-25.8301C52.2949-25.8301 56.4941-30.0781 56.4941-35.2539C56.4941-40.4297 52.2461-44.6289 47.1191-44.6289C41.8945-44.6289 37.6953-40.4297 37.6953-35.2539C37.6953-30.0781 41.8945-25.8301 47.1191-25.8301ZM76.2207-25.8301C81.3965-25.8301 85.5957-30.0781 85.5957-35.2539C85.5957-40.4297 81.3965-44.6289 76.2207-44.6289C70.9961-44.6289 66.7969-40.4297 66.7969-35.2539C66.7969-30.0781 70.9961-25.8301 76.2207-25.8301ZM105.322-25.8301C110.498-25.8301 114.697-30.0781 114.697-35.2539C114.697-40.4297 110.498-44.6289 105.322-44.6289C100.098-44.6289 95.8984-40.4297 95.8984-35.2539C95.8984-30.0781 100.098-25.8301 105.322-25.8301Z"/>
  </g>
  <g id="Medium-L" transform="matrix(1 0 0 1 1670.87 1556)">
   <path d="M75.6836 29.1504C110.938 29.1504 140.088 0 140.088-35.2539C140.088-70.5078 110.889-99.6582 75.6348-99.6582C40.3809-99.6582 11.2793-70.5078 11.2793-35.2539C11.2793 0 40.3809 29.1504 75.6836 29.1504ZM75.6836 18.0176C46.1426 18.0176 22.4609-5.76172 22.4609-35.2539C22.4609-64.7461 46.1426-88.5254 75.6348-88.5254C105.127-88.5254 128.906-64.7461 128.906-35.2539C128.955-5.76172 105.176 18.0176 75.6836 18.0176ZM46.4844-26.123C51.5137-26.123 55.5664-30.2246 55.5664-35.2539C55.5664-40.2832 51.4648-44.3848 46.4844-44.3848C41.4062-44.3848 37.3047-40.2832 37.3047-35.2539C37.3047-30.2246 41.4062-26.123 46.4844-26.123ZM75.5859-26.123C80.6152-26.123 84.7168-30.2246 84.7168-35.2539C84.7168-40.2832 80.6152-44.3848 75.5859-44.3848C70.5566-44.3848 66.4551-40.2832 66.4551-35.2539C66.4551-30.2246 70.5566-26.123 75.5859-26.123ZM104.736-26.123C109.766-26.123 113.867-30.2246 113.867-35.2539C113.867-40.2832 109.766-44.3848 104.736-44.3848C99.6582-44.3848 95.6055-40.2832 95.6055-35.2539C95.6055-30.2246 99.6582-26.123 104.736-26.123Z"/>
  </g>
  <g id="Regular-L" transform="matrix(1 0 0 1 1374.97 1556)">
   <path d="M74.8535 28.3203C109.668 28.3203 138.477-0.488281 138.477-35.2539C138.477-70.0684 109.619-98.877 74.8047-98.877C40.0391-98.877 11.2793-70.0684 11.2793-35.2539C11.2793-0.488281 40.0879 28.3203 74.8535 28.3203ZM74.8535 19.2383C44.6777 19.2383 20.4102-5.07812 20.4102-35.2539C20.4102-65.4785 44.6289-89.7461 74.8047-89.7461C105.029-89.7461 129.297-65.4785 129.346-35.2539C129.395-5.07812 105.078 19.2383 74.8535 19.2383ZM45.6543-26.4648C50.4883-26.4648 54.3945-30.4199 54.3945-35.2539C54.3945-40.0879 50.4395-44.043 45.6543-44.043C40.7715-44.043 36.8164-40.0879 36.8164-35.2539C36.8164-30.4199 40.7715-26.4648 45.6543-26.4648ZM74.8047-26.4648C79.6387-26.4648 83.5938-30.4199 83.5938-35.2539C83.5938-40.0879 79.6387-44.043 74.8047-44.043C69.9219-44.043 66.0156-40.0879 66.0156-35.2539C66.0156-30.4199 69.9219-26.4648 74.8047-26.4648ZM104.004-26.4648C108.838-26.4648 112.793-30.4199 112.793-35.2539C112.793-40.0879 108.838-44.043 104.004-44.043C99.1211-44.043 95.166-40.0879 95.166-35.2539C95.166-30.4199 99.1211-26.4648 104.004-26.4648Z"/>
  </g>
  <g id="Light-L" transform="matrix(1 0 0 1 1079.18 1556)">
   <path d="M73.9258 27.3926C108.301 27.3926 136.621-0.927734 136.621-35.2539C136.621-69.6289 108.252-97.9492 73.9258-97.9492C39.5508-97.9492 11.2793-69.6289 11.2793-35.2539C11.2793-0.927734 39.5996 27.3926 73.9258 27.3926ZM73.9258 20.5078C43.1152 20.5078 18.2129-4.44336 18.2129-35.2539C18.2129-66.1133 43.0664-91.0156 73.9258-91.0156C104.736-91.0156 129.688-66.1133 129.736-35.2539C129.736-4.44336 104.785 20.5078 73.9258 20.5078ZM45.0195-26.9531C49.6094-26.9531 53.2715-30.6641 53.2715-35.2539C53.2715-39.8438 49.5605-43.5547 45.0195-43.5547C40.4297-43.5547 36.7188-39.8438 36.7188-35.2539C36.7188-30.6641 40.4297-26.9531 45.0195-26.9531ZM73.9258-26.9531C78.4668-26.9531 82.1777-30.6641 82.1777-35.2539C82.1777-39.8438 78.4668-43.5547 73.9258-43.5547C69.2871-43.5547 65.5762-39.8438 65.5762-35.2539C65.5762-30.6641 69.2871-26.9531 73.9258-26.9531ZM102.783-26.9531C107.373-26.9531 111.035-30.6641 111.035-35.2539C111.035-39.8438 107.373-43.5547 102.783-43.5547C98.1934-43.5547 94.4824-39.8438 94.4824-35.2539C94.4824-30.6641 98.1934-26.9531 102.783-26.9531Z"/>
  </g>
  <g id="Thin-L" transform="matrix(1 0 0 1 783.693 1556)">
   <path d="M72.7051 26.1719C106.494 26.1719 134.18-1.51367 134.18-35.2539C134.18-69.043 106.494-96.7285 72.7051-96.7285C38.9648-96.7285 11.2793-69.043 11.2793-35.2539C11.2793-1.51367 38.9648 26.1719 72.7051 26.1719ZM72.7051 22.168C41.0156 22.168 15.2832-3.56445 15.2832-35.2539C15.2832-66.9922 41.0156-92.7246 72.7051-92.7246C104.395-92.7246 130.176-66.9922 130.176-35.2539C130.176-3.56445 104.443 22.168 72.7051 22.168ZM44.2383-27.6367C48.4375-27.6367 51.8066-31.0059 51.8066-35.2539C51.8066-39.4531 48.3887-42.8711 44.2383-42.8711C39.9414-42.8711 36.5723-39.4531 36.5723-35.2539C36.5723-31.0059 39.9414-27.6367 44.2383-27.6367ZM72.7051-27.6367C76.9043-27.6367 80.2734-31.0059 80.2734-35.2539C80.2734-39.4531 76.9043-42.8711 72.7051-42.8711C68.457-42.8711 65.0391-39.4531 65.0391-35.2539C65.0391-31.0059 68.457-27.6367 72.7051-27.6367ZM101.221-27.6367C105.42-27.6367 108.789-31.0059 108.789-35.2539C108.789-39.4531 105.42-42.8711 101.221-42.8711C96.9238-42.8711 93.5547-39.4531 93.5547-35.2539C93.5547-31.0059 96.9238-27.6367 101.221-27.6367Z"/>
  </g>
  <g id="Ultralight-L" transform="matrix(1 0 0 1 487.616 1556)">
   <path d="M72.1191 25.5371C105.566 25.5371 132.91-1.80664 132.91-35.2539C132.91-68.75 105.566-96.0938 72.1191-96.0938C38.623-96.0938 11.2793-68.75 11.2793-35.2539C11.2793-1.80664 38.623 25.5371 72.1191 25.5371ZM72.1191 23.0469C39.9414 23.0469 13.7695-3.125 13.7695-35.2539C13.7695-67.4316 39.9414-93.6035 72.1191-93.6035C104.248-93.6035 130.42-67.4316 130.42-35.2539C130.42-3.125 104.248 23.0469 72.1191 23.0469ZM43.7988-27.9297C47.8027-27.9297 51.0254-31.1523 51.0254-35.2539C51.0254-39.2578 47.8027-42.4805 43.7988-42.4805C39.6973-42.4805 36.4746-39.2578 36.4746-35.2539C36.4746-31.1523 39.6973-27.9297 43.7988-27.9297ZM72.1191-27.9297C76.123-27.9297 79.3457-31.1523 79.3457-35.2539C79.3457-39.2578 76.123-42.4805 72.1191-42.4805C68.0176-42.4805 64.7949-39.2578 64.7949-35.2539C64.7949-31.1523 68.0176-27.9297 72.1191-27.9297ZM100.391-27.9297C104.395-27.9297 107.617-31.1523 107.617-35.2539C107.617-39.2578 104.395-42.4805 100.391-42.4805C96.2891-42.4805 93.0664-39.2578 93.0664-35.2539C93.0664-31.1523 96.2891-27.9297 100.391-27.9297Z"/>
  </g>
  <g id="Black-M" transform="matrix(1 0 0 1 2870.97 1126)">
   <path d="M62.4023 18.457C91.9922 18.457 116.113-5.61523 116.113-35.2051C116.113-64.7949 91.9922-88.8672 62.4023-88.8672C32.8125-88.8672 8.74023-64.7949 8.74023-35.2051C8.74023-5.61523 32.8125 18.457 62.4023 18.457ZM62.4023 0.195312C42.8711 0.195312 27.002-15.625 27.002-35.2051C27.002-54.7363 42.8711-70.6055 62.4023-70.6055C81.9824-70.6055 97.8027-54.7363 97.8027-35.2051C97.8027-15.625 81.9824 0.195312 62.4023 0.195312ZM40.1367-26.5625C44.873-26.5625 48.6816-30.4688 48.6816-35.2051C48.6816-39.9414 44.873-43.8477 40.1367-43.8477C35.3027-43.8477 31.4941-39.9414 31.4941-35.2051C31.4941-30.4688 35.3027-26.5625 40.1367-26.5625ZM62.3047-26.5625C67.041-26.5625 70.8984-30.4688 70.8984-35.2051C70.8984-39.9414 67.041-43.8477 62.3047-43.8477C57.5195-43.8477 53.6621-39.9414 53.6621-35.2051C53.6621-30.4688 57.5195-26.5625 62.3047-26.5625ZM84.4727-26.5625C89.2578-26.5625 93.0664-30.4688 93.0664-35.2051C93.0664-39.9414 89.2578-43.8477 84.4727-43.8477C79.6875-43.8477 75.8789-39.9414 75.8789-35.2051C75.8789-30.4688 79.6875-26.5625 84.4727-26.5625Z"/>
  </g>
  <g id="Heavy-M" transform="matrix(1 0 0 1 2575.19 1126)">
   <path d="M61.5234 17.5293C90.5273 17.5293 114.258-6.20117 114.258-35.2051C114.258-64.2578 90.5273-87.9883 61.4746-87.9883C32.4707-87.9883 8.74023-64.2578 8.74023-35.2051C8.74023-6.20117 32.4707 17.5293 61.5234 17.5293ZM61.5234 1.61133C41.1133 1.61133 24.6582-14.8438 24.6582-35.2051C24.6582-55.6152 41.1133-72.0703 61.4746-72.0703C81.8848-72.0703 98.3398-55.6152 98.3398-35.2051C98.3398-14.8438 81.8848 1.61133 61.5234 1.61133ZM39.0625-26.9531C43.6523-26.9531 47.3145-30.6641 47.3145-35.2051C47.3145-39.7461 43.6035-43.457 39.0625-43.457C34.4727-43.457 30.8105-39.7461 30.8105-35.2051C30.8105-30.6641 34.4727-26.9531 39.0625-26.9531ZM61.377-26.9531C65.9668-26.9531 69.6777-30.6641 69.6777-35.2051C69.6777-39.7461 65.9668-43.457 61.377-43.457C56.8359-43.457 53.125-39.7461 53.125-35.2051C53.125-30.6641 56.8359-26.9531 61.377-26.9531ZM83.6914-26.9531C88.3301-26.9531 91.9922-30.6641 91.9922-35.2051C91.9922-39.7461 88.3301-43.457 83.6914-43.457C79.1504-43.457 75.4883-39.7461 75.4883-35.2051C75.4883-30.6641 79.1504-26.9531 83.6914-26.9531Z"/>
  </g>
  <g id="Bold-M" transform="matrix(1 0 0 1 2279.5 1126)">
   <path d="M60.498 16.5039C88.8672 16.5039 112.207-6.83594 112.207-35.2051C112.207-63.623 88.8672-86.9629 60.4492-86.9629C32.0312-86.9629 8.74023-63.623 8.74023-35.2051C8.74023-6.83594 32.0801 16.5039 60.498 16.5039ZM60.498 3.22266C39.1602 3.22266 22.0703-13.916 22.0703-35.2051C22.0703-56.543 39.1602-73.6816 60.4492-73.6816C81.7383-73.6816 98.9258-56.543 98.9258-35.2051C98.9746-13.916 81.7871 3.22266 60.498 3.22266ZM37.9395-27.3438C42.2363-27.3438 45.752-30.9082 45.752-35.2051C45.752-39.5508 42.2363-43.1152 37.9395-43.1152C33.5449-43.1152 30.0293-39.5508 30.0293-35.2051C30.0293-30.9082 33.5449-27.3438 37.9395-27.3438ZM60.4004-27.3438C64.7461-27.3438 68.2617-30.9082 68.2617-35.2051C68.2617-39.5508 64.7461-43.1152 60.4004-43.1152C56.0547-43.1152 52.5391-39.5508 52.5391-35.2051C52.5391-30.9082 56.0547-27.3438 60.4004-27.3438ZM82.8613-27.3438C87.2559-27.3438 90.7227-30.9082 90.7227-35.2051C90.7227-39.5508 87.2559-43.1152 82.8613-43.1152C78.5156-43.1152 75.0488-39.5508 75.0488-35.2051C75.0488-30.9082 78.5156-27.3438 82.8613-27.3438Z"/>
  </g>
  <g id="Semibold-M" transform="matrix(1 0 0 1 1983.5 1126)">
   <path d="M59.7656 15.8203C87.7441 15.8203 110.791-7.27539 110.791-35.2539C110.791-63.2324 87.6953-86.2793 59.7656-86.2793C31.7871-86.2793 8.74023-63.2324 8.74023-35.2539C8.74023-7.27539 31.7871 15.8203 59.7656 15.8203ZM59.7656 4.3457C37.8418 4.3457 20.2637-13.3301 20.2637-35.2539C20.2637-57.1777 37.793-74.8047 59.7656-74.8047C81.6895-74.8047 99.3164-57.1777 99.3652-35.2539C99.3652-13.3301 81.6895 4.3457 59.7656 4.3457ZM37.1094-27.6367C41.3086-27.6367 44.6777-31.0547 44.6777-35.2539C44.6777-39.4043 41.2598-42.8223 37.1094-42.8223C32.9102-42.8223 29.541-39.4043 29.541-35.2539C29.541-31.0547 32.9102-27.6367 37.1094-27.6367ZM59.7168-27.6367C63.8672-27.6367 67.2852-31.0547 67.2852-35.2539C67.2852-39.4043 63.8672-42.8223 59.7168-42.8223C55.5176-42.8223 52.0996-39.4043 52.0996-35.2539C52.0996-31.0547 55.5176-27.6367 59.7168-27.6367ZM82.2754-27.6367C86.4746-27.6367 89.8926-31.0547 89.8926-35.2539C89.8926-39.4043 86.4746-42.8223 82.2754-42.8223C78.125-42.8223 74.707-39.4043 74.707-35.2539C74.707-31.0547 78.125-27.6367 82.2754-27.6367Z"/>
  </g>
  <g id="Medium-M" transform="matrix(1 0 0 1 1687.3 1126)">
   <path d="M59.2285 15.2344C86.9141 15.2344 109.766-7.61719 109.766-35.2539C109.766-62.8906 86.8652-85.7422 59.1797-85.7422C31.543-85.7422 8.74023-62.8906 8.74023-35.2539C8.74023-7.61719 31.5918 15.2344 59.2285 15.2344ZM59.2285 5.17578C36.8164 5.17578 18.8965-12.8418 18.8965-35.2539C18.8965-57.666 36.8164-75.6348 59.1797-75.6348C81.5918-75.6348 99.6094-57.666 99.6582-35.2539C99.707-12.8418 81.6406 5.17578 59.2285 5.17578ZM36.5234-27.8809C40.5762-27.8809 43.8965-31.1523 43.8965-35.2539C43.8965-39.3066 40.5273-42.627 36.5234-42.627C32.4219-42.627 29.1016-39.3066 29.1016-35.2539C29.1016-31.1523 32.4219-27.8809 36.5234-27.8809ZM59.1797-27.8809C63.2324-27.8809 66.5527-31.1523 66.5527-35.2539C66.5527-39.3066 63.2324-42.627 59.1797-42.627C55.127-42.627 51.8066-39.3066 51.8066-35.2539C51.8066-31.1523 55.127-27.8809 59.1797-27.8809ZM81.8359-27.8809C85.9375-27.8809 89.209-31.1523 89.209-35.2539C89.209-39.3066 85.9375-42.627 81.8359-42.627C77.7832-42.627 74.4629-39.3066 74.4629-35.2539C74.4629-31.1523 77.7832-27.8809 81.8359-27.8809Z"/>
  </g>
  <g id="Regular-M" transform="matrix(1 0 0 1 1391.3 1126)">
   <path d="M58.5449 14.5508C85.791 14.5508 108.35-8.05664 108.35-35.2539C108.35-62.5 85.7422-85.0586 58.4961-85.0586C31.2988-85.0586 8.74023-62.5 8.74023-35.2539C8.74023-8.05664 31.3477 14.5508 58.5449 14.5508ZM58.5449 6.25C35.498 6.25 17.0898-12.207 17.0898-35.2539C17.0898-58.3008 35.4492-76.7578 58.4961-76.7578C81.543-76.7578 100-58.3008 100.049-35.2539C100.098-12.207 81.5918 6.25 58.5449 6.25ZM35.7422-28.125C39.6484-28.125 42.8223-31.3477 42.8223-35.2539C42.8223-39.1602 39.5996-42.3828 35.7422-42.3828C31.7871-42.3828 28.6133-39.1602 28.6133-35.2539C28.6133-31.3477 31.7871-28.125 35.7422-28.125ZM58.4961-28.125C62.4023-28.125 65.625-31.3477 65.625-35.2539C65.625-39.1602 62.4023-42.3828 58.4961-42.3828C54.5898-42.3828 51.3672-39.1602 51.3672-35.2539C51.3672-31.3477 54.5898-28.125 58.4961-28.125ZM81.2988-28.125C85.2051-28.125 88.3789-31.3477 88.3789-35.2539C88.3789-39.1602 85.2051-42.3828 81.2988-42.3828C77.3438-42.3828 74.1699-39.1602 74.1699-35.2539C74.1699-31.3477 77.3438-28.125 81.2988-28.125Z"/>
  </g>
  <g id="Light-M" transform="matrix(1 0 0 1 1095.42 1126)">
   <path d="M57.7148 13.7207C84.5215 13.7207 106.689-8.44727 106.689-35.2539C106.689-62.1094 84.5215-84.2285 57.666-84.2285C30.8594-84.2285 8.74023-62.1094 8.74023-35.2539C8.74023-8.44727 30.9082 13.7207 57.7148 13.7207ZM57.7148 7.37305C34.082 7.37305 15.0879-11.6699 15.0879-35.2539C15.0879-58.8867 34.082-77.9297 57.666-77.9297C81.2988-77.9297 100.342-58.8867 100.391-35.2539C100.391-11.6699 81.3477 7.37305 57.7148 7.37305ZM35.1562-28.6133C38.8184-28.6133 41.7969-31.5918 41.7969-35.2539C41.7969-38.916 38.8184-41.8945 35.1562-41.8945C31.4941-41.8945 28.5156-38.916 28.5156-35.2539C28.5156-31.5918 31.4941-28.6133 35.1562-28.6133ZM57.666-28.6133C61.3281-28.6133 64.3066-31.5918 64.3066-35.2539C64.3066-38.916 61.3281-41.8945 57.666-41.8945C54.0039-41.8945 51.0254-38.916 51.0254-35.2539C51.0254-31.5918 54.0039-28.6133 57.666-28.6133ZM80.2246-28.6133C83.8867-28.6133 86.8652-31.5918 86.8652-35.2539C86.8652-38.916 83.8867-41.8945 80.2246-41.8945C76.5137-41.8945 73.5352-38.916 73.5352-35.2539C73.5352-31.5918 76.5137-28.6133 80.2246-28.6133Z"/>
  </g>
  <g id="Thin-M" transform="matrix(1 0 0 1 799.806 1126)">
   <path d="M56.6406 12.5977C82.9102 12.5977 104.492-8.98438 104.492-35.2539C104.492-61.5723 82.9102-83.1543 56.5918-83.1543C30.3223-83.1543 8.74023-61.5723 8.74023-35.2539C8.74023-8.98438 30.3223 12.5977 56.6406 12.5977ZM56.6406 8.88672C32.2266 8.88672 12.4512-10.8887 12.4512-35.2539C12.4512-59.6191 32.2266-79.4434 56.5918-79.4434C81.0059-79.4434 100.781-59.6191 100.781-35.2539C100.781-10.8887 81.0059 8.88672 56.6406 8.88672ZM34.4727-29.1992C37.793-29.1992 40.4785-31.8848 40.4785-35.2539C40.4785-38.5742 37.793-41.2598 34.4727-41.2598C31.0547-41.2598 28.3691-38.5742 28.3691-35.2539C28.3691-31.8848 31.0547-29.1992 34.4727-29.1992ZM56.5918-29.1992C59.9609-29.1992 62.6465-31.8848 62.6465-35.2539C62.6465-38.5742 59.9609-41.2598 56.5918-41.2598C53.2227-41.2598 50.5371-38.5742 50.5371-35.2539C50.5371-31.8848 53.2227-29.1992 56.5918-29.1992ZM78.7598-29.1992C82.1289-29.1992 84.8145-31.8848 84.8145-35.2539C84.8145-38.5742 82.1289-41.2598 78.7598-41.2598C75.3906-41.2598 72.7051-38.5742 72.7051-35.2539C72.7051-31.8848 75.3906-29.1992 78.7598-29.1992Z"/>
  </g>
  <g id="Ultralight-M" transform="matrix(1 0 0 1 503.656 1126)">
   <path d="M56.0547 12.0605C82.0801 12.0605 103.369-9.22852 103.369-35.2539C103.369-61.2793 82.0801-82.5684 56.0547-82.5684C30.0293-82.5684 8.74023-61.2793 8.74023-35.2539C8.74023-9.22852 30.0293 12.0605 56.0547 12.0605ZM56.0547 9.66797C31.2988 9.66797 11.1328-10.498 11.1328-35.2539C11.1328-60.0586 31.2988-80.1758 56.0547-80.1758C80.8594-80.1758 100.977-60.0586 100.977-35.2539C100.977-10.498 80.8594 9.66797 56.0547 9.66797ZM34.082-29.4922C37.2559-29.4922 39.7949-32.0312 39.7949-35.2539C39.7949-38.4277 37.2559-40.9668 34.082-40.9668C30.8594-40.9668 28.3203-38.4277 28.3203-35.2539C28.3203-32.0312 30.8594-29.4922 34.082-29.4922ZM56.0547-29.4922C59.2285-29.4922 61.7676-32.0312 61.7676-35.2539C61.7676-38.4277 59.2285-40.9668 56.0547-40.9668C52.832-40.9668 50.293-38.4277 50.293-35.2539C50.293-32.0312 52.832-29.4922 56.0547-29.4922ZM78.0273-29.4922C81.2012-29.4922 83.7402-32.0312 83.7402-35.2539C83.7402-38.4277 81.2012-40.9668 78.0273-40.9668C74.8047-40.9668 72.2656-38.4277 72.2656-35.2539C72.2656-32.0312 74.8047-29.4922 78.0273-29.4922Z"/>
  </g>
  <g id="Black-S" transform="matrix(1 0 0 1 2884.57 696)">
   <path d="M48.8281 6.78711C71.9727 6.78711 90.8203-12.0605 90.8203-35.2051C90.8203-58.3496 71.9727-77.1973 48.8281-77.1973C25.6836-77.1973 6.83594-58.3496 6.83594-35.2051C6.83594-12.0605 25.6836 6.78711 48.8281 6.78711ZM48.8281-7.37305C33.4473-7.37305 20.9961-19.8242 20.9961-35.2051C20.9961-50.5859 33.4473-63.0371 48.8281-63.0371C64.209-63.0371 76.6602-50.5859 76.6602-35.2051C76.6602-19.8242 64.209-7.37305 48.8281-7.37305ZM31.3477-28.4668C35.0586-28.4668 38.0371-31.4941 38.0371-35.2051C38.0371-38.916 35.0586-41.9434 31.3477-41.9434C27.5879-41.9434 24.6094-38.916 24.6094-35.2051C24.6094-31.4941 27.5879-28.4668 31.3477-28.4668ZM48.7305-28.4668C52.4414-28.4668 55.4688-31.4941 55.4688-35.2051C55.4688-38.916 52.4414-41.9434 48.7305-41.9434C45.0195-41.9434 41.9922-38.916 41.9922-35.2051C41.9922-31.4941 45.0195-28.4668 48.7305-28.4668ZM66.1133-28.4668C69.873-28.4668 72.8516-31.4941 72.8516-35.2051C72.8516-38.916 69.873-41.9434 66.1133-41.9434C62.4023-41.9434 59.4238-38.916 59.4238-35.2051C59.4238-31.4941 62.4023-28.4668 66.1133-28.4668Z"/>
  </g>
  <g id="Heavy-S" transform="matrix(1 0 0 1 2588.47 696)">
   <path d="M48.2422 6.15234C70.9961 6.15234 89.5996-12.4512 89.5996-35.2051C89.5996-57.959 70.9961-76.6113 48.1934-76.6113C25.4395-76.6113 6.83594-57.959 6.83594-35.2051C6.83594-12.4512 25.4395 6.15234 48.2422 6.15234ZM48.2422-6.39648C32.2754-6.39648 19.4336-19.2871 19.4336-35.2051C19.4336-51.1719 32.2754-64.0137 48.1934-64.0137C64.1602-64.0137 77.002-51.1719 77.0508-35.2051C77.0508-19.2871 64.1602-6.39648 48.2422-6.39648ZM30.6152-28.7109C34.1797-28.7109 37.1094-31.6406 37.1094-35.2051C37.1094-38.8184 34.1797-41.748 30.6152-41.748C27.002-41.748 24.1211-38.8184 24.1211-35.2051C24.1211-31.6406 27.002-28.7109 30.6152-28.7109ZM48.1445-28.7109C51.709-28.7109 54.6387-31.6406 54.6387-35.2051C54.6387-38.8184 51.709-41.748 48.1445-41.748C44.5312-41.748 41.6016-38.8184 41.6016-35.2051C41.6016-31.6406 44.5312-28.7109 48.1445-28.7109ZM65.6738-28.7109C69.2871-28.7109 72.168-31.6406 72.168-35.2051C72.168-38.8184 69.2871-41.748 65.6738-41.748C62.0605-41.748 59.1797-38.8184 59.1797-35.2051C59.1797-31.6406 62.0605-28.7109 65.6738-28.7109Z"/>
  </g>
  <g id="Bold-S" transform="matrix(1 0 0 1 2292.44 696)">
   <path d="M47.5586 5.46875C69.873 5.46875 88.2324-12.8906 88.2324-35.2539C88.2324-57.5684 69.873-75.9277 47.5098-75.9277C25.1953-75.9277 6.83594-57.5684 6.83594-35.2539C6.83594-12.8906 25.1953 5.46875 47.5586 5.46875ZM47.5586-5.32227C30.957-5.32227 17.6758-18.6523 17.6758-35.2539C17.6758-51.8066 30.957-65.1367 47.5098-65.1367C64.1113-65.1367 77.4414-51.8066 77.4414-35.2539C77.4414-18.6523 64.1113-5.32227 47.5586-5.32227ZM29.7852-28.9551C33.252-28.9551 36.0352-31.7871 36.0352-35.2539C36.0352-38.6719 33.2031-41.5039 29.7852-41.5039C26.3184-41.5039 23.5352-38.6719 23.5352-35.2539C23.5352-31.7871 26.3184-28.9551 29.7852-28.9551ZM47.4609-28.9551C50.9277-28.9551 53.7109-31.7871 53.7109-35.2539C53.7109-38.6719 50.9277-41.5039 47.4609-41.5039C44.043-41.5039 41.2109-38.6719 41.2109-35.2539C41.2109-31.7871 44.043-28.9551 47.4609-28.9551ZM65.1367-28.9551C68.6035-28.9551 71.4355-31.7871 71.4355-35.2539C71.4355-38.6719 68.6035-41.5039 65.1367-41.5039C61.7188-41.5039 58.9355-38.6719 58.9355-35.2539C58.9355-31.7871 61.7188-28.9551 65.1367-28.9551Z"/>
  </g>
  <g id="Semibold-S" transform="matrix(1 0 0 1 1996.2 696)">
   <path d="M47.0703 4.98047C69.0918 4.98047 87.3047-13.1836 87.3047-35.2539C87.3047-57.2754 69.0918-75.4883 47.0215-75.4883C25-75.4883 6.83594-57.2754 6.83594-35.2539C6.83594-13.1836 25.0488 4.98047 47.0703 4.98047ZM47.0703-4.58984C30.0781-4.58984 16.4551-18.2129 16.4551-35.2539C16.4551-52.2461 30.0293-65.8691 47.0215-65.8691C64.0625-65.8691 77.6855-52.2461 77.7344-35.2539C77.7344-18.2129 64.0625-4.58984 47.0703-4.58984ZM29.248-29.1504C32.5684-29.1504 35.3027-31.8848 35.3027-35.2539C35.3027-38.5742 32.5684-41.3086 29.248-41.3086C25.8789-41.3086 23.1445-38.5742 23.1445-35.2539C23.1445-31.8848 25.8789-29.1504 29.248-29.1504ZM47.0215-29.1504C50.3418-29.1504 53.125-31.8848 53.125-35.2539C53.125-38.5742 50.3418-41.3086 47.0215-41.3086C43.6523-41.3086 40.918-38.5742 40.918-35.2539C40.918-31.8848 43.6523-29.1504 47.0215-29.1504ZM64.7949-29.1504C68.1641-29.1504 70.8984-31.8848 70.8984-35.2539C70.8984-38.5742 68.1641-41.3086 64.7949-41.3086C61.4258-41.3086 58.7402-38.5742 58.7402-35.2539C58.7402-31.8848 61.4258-29.1504 64.7949-29.1504Z"/>
  </g>
  <g id="Medium-S" transform="matrix(1 0 0 1 1699.83 696)">
   <path d="M46.7285 4.63867C68.5547 4.63867 86.6211-13.4277 86.6211-35.2539C86.6211-57.0801 68.5059-75.1465 46.6797-75.1465C24.8535-75.1465 6.83594-57.0801 6.83594-35.2539C6.83594-13.4277 24.9023 4.63867 46.7285 4.63867ZM46.7285-4.00391C29.3945-4.00391 15.5273-17.9199 15.5273-35.2539C15.5273-52.5879 29.3457-66.4551 46.6797-66.4551C64.0137-66.4551 77.8809-52.5879 77.9297-35.2539C77.9785-17.9199 64.0625-4.00391 46.7285-4.00391ZM28.8086-29.2969C32.0801-29.2969 34.7656-31.9824 34.7656-35.2539C34.7656-38.5254 32.0312-41.2109 28.8086-41.2109C25.4883-41.2109 22.8516-38.5254 22.8516-35.2539C22.8516-31.9824 25.4883-29.2969 28.8086-29.2969ZM46.6797-29.2969C49.9512-29.2969 52.6367-31.9824 52.6367-35.2539C52.6367-38.5254 49.9512-41.2109 46.6797-41.2109C43.4082-41.2109 40.7227-38.5254 40.7227-35.2539C40.7227-31.9824 43.4082-29.2969 46.6797-29.2969ZM64.5508-29.2969C67.8223-29.2969 70.5078-31.9824 70.5078-35.2539C70.5078-38.5254 67.8223-41.2109 64.5508-41.2109C61.2305-41.2109 58.5938-38.5254 58.5938-35.2539C58.5938-31.9824 61.2305-29.2969 64.5508-29.2969Z"/>
  </g>
  <g id="Regular-S" transform="matrix(1 0 0 1 1403.58 696)">
   <path d="M46.2402 4.15039C67.7734 4.15039 85.6934-13.7207 85.6934-35.2539C85.6934-56.7871 67.7246-74.6582 46.1914-74.6582C24.707-74.6582 6.83594-56.7871 6.83594-35.2539C6.83594-13.7207 24.7559 4.15039 46.2402 4.15039ZM46.2402-3.27148C28.5156-3.27148 14.3555-17.4805 14.3555-35.2539C14.3555-53.0273 28.4668-67.2363 46.1914-67.2363C63.9648-67.2363 78.1738-53.0273 78.2227-35.2539C78.2715-17.4805 64.0137-3.27148 46.2402-3.27148ZM28.2227-29.4434C31.3965-29.4434 34.0332-32.0801 34.0332-35.2539C34.0332-38.4277 31.3965-41.0645 28.2227-41.0645C25.0488-41.0645 22.4609-38.4277 22.4609-35.2539C22.4609-32.0801 25.0488-29.4434 28.2227-29.4434ZM46.1914-29.4434C49.4141-29.4434 52.002-32.0801 52.002-35.2539C52.002-38.4277 49.4141-41.0645 46.1914-41.0645C43.0176-41.0645 40.4297-38.4277 40.4297-35.2539C40.4297-32.0801 43.0176-29.4434 46.1914-29.4434ZM64.209-29.4434C67.3828-29.4434 69.9707-32.0801 69.9707-35.2539C69.9707-38.4277 67.3828-41.0645 64.209-41.0645C60.9863-41.0645 58.3984-38.4277 58.3984-35.2539C58.3984-32.0801 60.9863-29.4434 64.209-29.4434Z"/>
  </g>
  <g id="Light-S" transform="matrix(1 0 0 1 1107.6 696)">
   <path d="M45.5078 3.41797C66.6992 3.41797 84.2285-14.0625 84.2285-35.2539C84.2285-56.4453 66.6504-73.9258 45.5078-73.9258C24.3164-73.9258 6.83594-56.4453 6.83594-35.2539C6.83594-14.0625 24.3652 3.41797 45.5078 3.41797ZM45.5078-2.29492C27.2461-2.29492 12.5977-16.9922 12.5977-35.2539C12.5977-53.5156 27.1973-68.2129 45.5078-68.2129C63.7695-68.2129 78.4668-53.5156 78.5156-35.2539C78.5156-16.9922 63.8184-2.29492 45.5078-2.29492ZM27.7344-29.8828C30.7129-29.8828 33.1055-32.2754 33.1055-35.2539C33.1055-38.2324 30.6641-40.625 27.7344-40.625C24.7559-40.625 22.3633-38.2324 22.3633-35.2539C22.3633-32.2754 24.7559-29.8828 27.7344-29.8828ZM45.5078-29.8828C48.4375-29.8828 50.8789-32.2754 50.8789-35.2539C50.8789-38.2324 48.4375-40.625 45.5078-40.625C42.5293-40.625 40.0879-38.2324 40.0879-35.2539C40.0879-32.2754 42.5293-29.8828 45.5078-29.8828ZM63.2324-29.8828C66.2109-29.8828 68.6035-32.2754 68.6035-35.2539C68.6035-38.2324 66.2109-40.625 63.2324-40.625C60.2539-40.625 57.8613-38.2324 57.8613-35.2539C57.8613-32.2754 60.2539-29.8828 63.2324-29.8828Z"/>
  </g>
  <g id="Thin-S" transform="matrix(1 0 0 1 811.867 696)">
   <path d="M44.5801 2.49023C65.2832 2.49023 82.2754-14.5508 82.2754-35.2539C82.2754-55.957 65.2344-72.998 44.5312-72.998C23.8281-72.998 6.83594-55.957 6.83594-35.2539C6.83594-14.5508 23.877 2.49023 44.5801 2.49023ZM44.5801-0.927734C25.5859-0.927734 10.2539-16.3086 10.2539-35.2539C10.2539-54.1992 25.5859-69.5801 44.5312-69.5801C63.5254-69.5801 78.8574-54.1992 78.8574-35.2539C78.8574-16.3086 63.5254-0.927734 44.5801-0.927734ZM27.0996-30.3711C29.7852-30.3711 31.9336-32.5195 31.9336-35.2539C31.9336-37.9395 29.7852-40.0879 27.0996-40.0879C24.4141-40.0879 22.2656-37.9395 22.2656-35.2539C22.2656-32.5195 24.4141-30.3711 27.0996-30.3711ZM44.5312-30.3711C47.2168-30.3711 49.3652-32.5195 49.3652-35.2539C49.3652-37.9395 47.2168-40.0879 44.5312-40.0879C41.8457-40.0879 39.6973-37.9395 39.6973-35.2539C39.6973-32.5195 41.8457-30.3711 44.5312-30.3711ZM61.9629-30.3711C64.6484-30.3711 66.7969-32.5195 66.7969-35.2539C66.7969-37.9395 64.6484-40.0879 61.9629-40.0879C59.2773-40.0879 57.1289-37.9395 57.1289-35.2539C57.1289-32.5195 59.2773-30.3711 61.9629-30.3711Z"/>
  </g>
  <g id="Ultralight-S" transform="matrix(1 0 0 1 515.644 696)">
   <path d="M44.043 1.95312C64.502 1.95312 81.2988-14.7949 81.2988-35.2539C81.2988-55.7129 64.502-72.4609 44.043-72.4609C23.584-72.4609 6.83594-55.7129 6.83594-35.2539C6.83594-14.7949 23.584 1.95312 44.043 1.95312ZM44.043-0.244141C24.7559-0.244141 9.08203-15.9668 9.08203-35.2539C9.08203-54.541 24.7559-70.2637 44.043-70.2637C63.3789-70.2637 79.0527-54.541 79.0527-35.2539C79.0527-15.9668 63.3789-0.244141 44.043-0.244141ZM26.8066-30.6641C29.2969-30.6641 31.3477-32.666 31.3477-35.2539C31.3477-37.793 29.2969-39.7949 26.8066-39.7949C24.2188-39.7949 22.168-37.793 22.168-35.2539C22.168-32.666 24.2188-30.6641 26.8066-30.6641ZM44.043-30.6641C46.582-30.6641 48.6328-32.666 48.6328-35.2539C48.6328-37.793 46.582-39.7949 44.043-39.7949C41.5039-39.7949 39.4531-37.793 39.4531-35.2539C39.4531-32.666 41.5039-30.6641 44.043-30.6641ZM61.3281-30.6641C63.8672-30.6641 65.8691-32.666 65.8691-35.2539C65.8691-37.793 63.8672-39.7949 61.3281-39.7949C58.7402-39.7949 56.7383-37.793 56.7383-35.2539C56.7383-32.666 58.7402-30.6641 61.3281-30.6641Z"/>
  </g>
 </g>
</svg>
