<svg width="102" height="102" viewBox="0 0 102 102" fill="none" xmlns="http://www.w3.org/2000/svg">
<path fill-rule="evenodd" clip-rule="evenodd" d="M42.5 36C38.9101 36 36 38.9101 36 42.5V59.5C36 63.0899 38.9101 66 42.5 66H59.5C63.0899 66 66 63.0899 66 59.5V47.5C66 46.6716 66.6716 46 67.5 46V46C68.3284 46 69 46.6716 69 47.5V59.5C69 64.7467 64.7467 69 59.5 69H42.5C37.2533 69 33 64.7467 33 59.5V42.5C33 37.2533 37.2533 33 42.5 33H54.5C55.3284 33 56 33.6716 56 34.5V34.5C56 35.3284 55.3284 36 54.5 36H42.5Z" fill="#D1D2D3"/>
<path fill-rule="evenodd" clip-rule="evenodd" d="M45.125 58C44.7875 58 44.5625 57.8875 44.3375 57.6625C44 57.325 43.8875 56.875 44.1125 56.425L47.4875 48.55C47.4875 48.4375 47.6 48.325 47.7125 48.2125L64.3501 31.575C65.9251 30 68.0001 30.475 69.7625 32.2375C71.525 34 72 36.075 69.7625 38.3125L53.7875 54.2875C53.675 54.4 53.5625 54.5125 53.45 54.5125L45.575 57.8875C45.4625 58 45.2375 58 45.125 58ZM47.1242 53.5744L49.4 49.6749L65.2625 33.8124C66.05 33.0249 67.2875 32.9124 68.1875 33.8124C68.525 34.2624 68.75 34.7124 68.75 35.2749C68.75 35.8374 68.525 36.3999 68.075 36.8499L52.325 52.5999L48.5093 54.9317C47.6229 55.4734 46.6005 54.4716 47.1242 53.5744Z" fill="#C4C4C4"/>
<path d="M65.0625 42.1875C64.725 42.1875 64.5 42.075 64.275 41.85L60.3375 37.9125C59.8875 37.4625 59.8875 36.7875 60.3375 36.3375C60.7875 35.8875 61.4625 35.8875 61.9125 36.3375L65.85 40.275C66.3 40.725 66.3 41.4 65.85 41.85C65.625 42.075 65.4 42.1875 65.0625 42.1875Z" fill="#C4C4C4"/>
</svg>
