<svg width="24" height="24" viewBox="0 0 24 24" fill="none" xmlns="http://www.w3.org/2000/svg">
<path fill-rule="evenodd" clip-rule="evenodd" d="M5.889 16H2C1.44771 16 1 15.5523 1 15V9C1 8.44771 1.44771 8 2 8H5.889L11.183 3.668C11.3965 3.49293 11.7116 3.52412 11.8867 3.73767C11.96 3.82714 12.0001 3.93929 12 4.055V19.945V19.945C12.0002 20.2212 11.7764 20.4452 11.5003 20.4453C11.3846 20.4454 11.2724 20.4053 11.183 20.332L5.89 16L5.889 16ZM10 7.22L6.603 10H3V14H6.603L10 16.78V7.22ZM23.95 15.536L20.414 12L23.95 8.464L22.536 7.05L19 10.586L15.464 7.05L14.05 8.464L17.586 12L14.05 15.536L15.464 16.95L19 13.414L22.536 16.95L23.95 15.536Z" fill="#7A7A7A"/>
</svg>
