<svg width="136" height="136" viewBox="0 0 136 136" fill="none" xmlns="http://www.w3.org/2000/svg">
<path fill-rule="evenodd" clip-rule="evenodd" d="M105.506 93.1228L108.389 88.9903C112.909 82.5132 115.5 74.899 115.5 66.7499C115.5 43.7768 94.6196 24.5 68 24.5C41.3806 24.5 20.5 43.7768 20.5 66.7499C20.5 89.7227 41.3806 109 68 109C71.3386 109 74.5922 108.694 77.7291 108.113L79.4007 107.803L113.386 113.672L105.506 93.1228ZM118.338 124.167L79.4593 117.454C75.7526 118.14 71.9199 118.5 68 118.5C37.1694 118.5 11 95.9483 11 66.7499C11 37.5512 37.1694 15 68 15C98.8307 15 125 37.5512 125 66.7499C125 76.9699 121.737 86.462 116.18 94.4263L124.616 116.425C125.356 118.355 125.011 120.538 123.712 122.141C122.413 123.743 120.361 124.517 118.338 124.167Z" fill="#DBDBDB"/>
</svg>
